<svg width="816" height="674" viewBox="0 0 816 674" fill="none" xmlns="http://www.w3.org/2000/svg">
<g clip-path="url(#clip0)">
<path d="M425.608 647.959C579.968 647.959 705.102 520.054 705.102 362.275C705.102 204.496 579.968 76.5908 425.608 76.5908C271.249 76.5908 146.115 204.496 146.115 362.275C146.115 520.054 271.249 647.959 425.608 647.959Z" fill="#FF2D4A"/>
<path d="M683.372 637.237C683.372 649.081 530.394 674.001 341.686 674.001C152.978 674.001 0 649.081 0 637.237C0 625.393 152.978 631.11 341.686 631.11C530.394 631.11 683.372 625.393 683.372 637.237Z" fill="#3F3D56"/>
<path opacity="0.1" d="M683.372 637.237C683.372 649.081 530.394 674.001 341.686 674.001C152.978 674.001 0 649.081 0 637.237C0 625.393 152.978 631.11 341.686 631.11C530.394 631.11 683.372 625.393 683.372 637.237Z" fill="black"/>
<path d="M341.686 658.682C530.394 658.682 683.372 649.08 683.372 637.236C683.372 625.392 530.394 615.791 341.686 615.791C152.978 615.791 0 625.392 0 637.236C0 649.08 152.978 658.682 341.686 658.682Z" fill="#3F3D56"/>
<path d="M541.145 535.687C541.145 584.096 570.855 623.267 607.572 623.267L541.145 535.687Z" fill="#3F3D56"/>
<path d="M607.574 623.267C607.574 574.314 640.73 534.703 681.704 534.703L607.574 623.267Z" fill="#F50057"/>
<path d="M565.213 540.075C565.213 586.058 584.159 623.267 607.573 623.267L565.213 540.075Z" fill="#F50057"/>
<path d="M607.574 623.267C607.574 560.717 645.897 510.102 693.256 510.102L607.574 623.267Z" fill="#3F3D56"/>
<path d="M593.598 623.884C593.598 623.884 603.018 623.588 605.857 621.521C608.696 619.455 620.349 616.987 621.053 620.301C621.757 623.616 635.21 636.785 624.574 636.872C613.939 636.96 599.862 635.179 597.028 633.415C594.194 631.65 593.598 623.884 593.598 623.884Z" fill="#A8A8A8"/>
<path opacity="0.2" d="M624.764 635.719C614.129 635.807 600.051 634.026 597.218 632.261C595.06 630.918 594.2 626.096 593.912 623.872C593.713 623.881 593.598 623.885 593.598 623.885C593.598 623.885 594.194 631.651 597.028 633.415C599.862 635.179 613.939 636.96 624.575 636.873C627.645 636.847 628.705 635.731 628.647 634.077C628.22 635.076 627.049 635.7 624.764 635.719Z" fill="black"/>
<path d="M429.082 256.821C429.082 256.821 438.667 277.397 434.833 287.194C430.999 296.992 449.211 307.77 449.211 307.77L473.175 294.053V276.417L469.341 268.579C469.341 268.579 454.004 259.761 455.921 246.044C457.838 232.327 429.082 256.821 429.082 256.821Z" fill="#FFB9B9"/>
<path opacity="0.1" d="M429.082 256.821C429.082 256.821 438.667 277.397 434.833 287.194C430.999 296.992 449.211 307.77 449.211 307.77L473.175 294.053V276.417L469.341 268.579C469.341 268.579 454.004 259.761 455.921 246.044C457.838 232.327 429.082 256.821 429.082 256.821Z" fill="black"/>
<path d="M410.87 343.042C410.87 343.042 408.953 364.597 408.953 367.536C408.953 370.475 406.077 380.273 406.077 380.273C406.077 380.273 395.533 430.241 388.824 435.14C382.114 440.039 378.28 470.412 388.824 468.453C399.368 466.493 402.243 440.039 402.243 440.039L424.067 397.917L427.165 346.961L410.87 343.042Z" fill="#FFB9B9"/>
<path d="M418.537 299.932H410.869C410.869 299.932 403.201 346.961 410.869 348.92C418.537 350.88 432.915 350.88 432.915 350.88L418.537 299.932Z" fill="#575A89"/>
<path d="M461.672 602.682L465.506 621.298L473.174 615.419L469.34 598.763L461.672 601.702V602.682Z" fill="#FFB9B9"/>
<path d="M427.165 403.788L421.413 407.707C421.413 407.707 418.538 441.999 425.248 468.453C431.957 494.907 436.75 526.26 436.75 526.26C436.75 526.26 448.253 604.642 451.128 606.601C454.004 608.561 472.216 609.54 473.175 605.621C474.133 601.702 466.465 528.219 466.465 528.219C466.465 528.219 460.714 466.493 465.506 458.655C465.506 458.655 480.843 526.259 485.636 533.118C485.636 533.118 492.346 607.581 496.18 609.54C500.014 611.5 518.226 612.48 519.185 608.561C520.143 604.641 513.433 520.381 510.558 513.522C507.682 506.664 506.724 404.767 500.014 405.747C493.304 406.727 427.165 403.788 427.165 403.788Z" fill="#2F2E41"/>
<path d="M438.668 265.639C450.844 265.639 460.714 255.55 460.714 243.105C460.714 230.659 450.844 220.57 438.668 220.57C426.492 220.57 416.621 230.659 416.621 243.105C416.621 255.55 426.492 265.639 438.668 265.639Z" fill="#FFB9B9"/>
<path d="M447.295 293.073L442.502 284.255C442.502 284.255 436.751 276.417 433.875 278.377C430.999 280.336 431 287.195 431 287.195C431 287.195 408.953 295.033 410.87 305.81C412.787 316.588 425.248 335.204 425.248 335.204C425.248 335.204 427.165 350.88 425.248 354.799C423.331 358.718 419.497 361.658 422.373 365.577C425.248 369.496 426.207 370.476 425.248 375.375C424.29 380.273 422.373 382.233 424.29 384.192C426.207 386.152 423.331 406.727 421.414 407.707C419.497 408.687 482.761 418.485 487.554 415.545C492.346 412.606 505.766 412.606 504.807 409.667C503.849 406.727 500.015 389.091 500.015 386.152C500.015 383.213 500.015 370.476 499.056 369.496C498.097 368.516 500.015 353.819 500.015 353.819L495.222 312.669L510.558 288.174C510.558 288.174 506.724 274.458 488.512 272.498C470.3 270.539 465.262 265.64 465.262 265.64C465.262 265.64 463.59 274.458 459.756 276.417C455.922 278.377 447.295 293.073 447.295 293.073Z" fill="#575A89"/>
<path d="M517.268 319.527L523.019 363.617L510.558 427.303C510.558 427.303 505.766 463.554 496.18 462.575C486.595 461.595 496.18 423.384 496.18 423.384L503.849 363.617C503.849 363.617 491.387 333.244 494.263 329.325C497.139 325.406 517.268 319.527 517.268 319.527Z" fill="#FFB9B9"/>
<path d="M470.299 612.48C470.299 612.48 457.838 605.621 454.962 606.601C452.087 607.581 449.211 621.298 449.211 621.298C449.211 621.298 427.164 637.954 441.543 641.873C455.921 645.792 461.672 636.974 461.672 636.974C461.672 636.974 476.05 629.136 476.05 627.177C476.05 625.217 474.133 612.48 474.133 612.48H470.299Z" fill="#2F2E41"/>
<path d="M499.055 607.581C499.055 607.581 493.304 639.914 497.138 641.873C500.972 643.833 517.268 646.772 519.185 641.873C521.102 636.974 521.102 625.217 520.143 621.298C519.185 617.379 516.309 607.581 516.309 607.581H499.055Z" fill="#2F2E41"/>
<path d="M434.823 207.461C433.965 207.198 433.054 207.169 432.182 207.379C431.082 207.746 430.359 208.785 429.52 209.6C427.322 211.733 424.181 212.401 421.316 213.411C418.45 214.422 415.436 216.21 414.718 219.221C414.545 220.432 414.441 221.653 414.406 222.877C413.979 226.428 411.329 229.626 411.803 233.171C412.112 235.487 413.728 237.452 414.059 239.765C414.429 242.343 413.154 245.027 413.865 247.53C414.562 249.983 416.919 251.478 419.09 252.741C420.022 246.699 421.14 240.691 422.446 234.717C422.594 233.638 423.005 232.613 423.641 231.739C425.568 229.507 429.349 230.778 431.85 229.253C432.8 228.674 433.505 227.718 434.503 227.231C437.393 225.819 440.518 228.947 443.721 228.976C445.134 228.989 446.684 228.415 447.878 229.188C448.405 229.582 448.824 230.109 449.094 230.716C450.235 232.906 450.862 235.366 452.193 237.44C453.524 239.515 455.908 241.207 458.267 240.626C457.907 238.756 459.34 237.073 459.913 235.259C460.9 232.138 459.287 228.75 459.676 225.495C460.041 222.438 461.989 218.849 459.852 216.679C459.121 216.049 458.254 215.604 457.323 215.382C449.758 212.928 442.77 208.815 434.823 207.461Z" fill="#2F2E41"/>
<path d="M500.972 284.255L510.557 288.174C510.557 288.174 523.018 329.325 520.143 329.325C517.267 329.325 491.387 336.183 491.387 333.244C491.387 330.304 493.304 284.255 500.972 284.255Z" fill="#575A89"/>
<path d="M349.178 200.668H52.4512V300.236H63.6908V326.277L89.1674 300.236H349.178V200.668Z" fill="#3F3D56"/>
<path d="M349.178 468.736H52.4512V568.305H63.6908V594.345L89.1674 568.305H349.178V468.736Z" fill="#3F3D56"/>
<path d="M104.904 335.468H401.632V435.036H390.392V461.077L364.915 435.036H104.904V335.468Z" fill="#3F3D56"/>
<path opacity="0.3" d="M314.711 217.135H86.9199V226.326H314.711V217.135Z" fill="white"/>
<path opacity="0.3" d="M200.815 234.751H86.9199V243.942H200.815V234.751Z" fill="white"/>
<path opacity="0.3" d="M99.6582 283.769C106.693 283.769 112.397 277.94 112.397 270.749C112.397 263.558 106.693 257.729 99.6582 257.729C92.623 257.729 86.9199 263.558 86.9199 270.749C86.9199 277.94 92.623 283.769 99.6582 283.769Z" fill="white"/>
<path d="M359.669 350.404H131.879V359.595H359.669V350.404Z" fill="#FF2D4A"/>
<path d="M245.774 368.02H131.879V377.21H245.774V368.02Z" fill="#FF2D4A"/>
<path d="M144.617 417.038C151.652 417.038 157.355 411.209 157.355 404.018C157.355 396.827 151.652 390.997 144.617 390.997C137.582 390.997 131.879 396.827 131.879 404.018C131.879 411.209 137.582 417.038 144.617 417.038Z" fill="#FF2D4A"/>
<path opacity="0.3" d="M314.711 485.204H86.9199V494.395H314.711V485.204Z" fill="white"/>
<path opacity="0.3" d="M200.815 502.82H86.9199V512.011H200.815V502.82Z" fill="white"/>
<path opacity="0.3" d="M99.6582 551.838C106.693 551.838 112.397 546.008 112.397 538.817C112.397 531.626 106.693 525.797 99.6582 525.797C92.623 525.797 86.9199 531.626 86.9199 538.817C86.9199 546.008 92.623 551.838 99.6582 551.838Z" fill="white"/>
</g>
<defs>
<clipPath id="clip0">
<rect width="816" height="674" fill="white"/>
</clipPath>
</defs>
</svg>
