<svg width="1028" height="473" viewBox="0 0 1028 473" fill="none" xmlns="http://www.w3.org/2000/svg">
<g clip-path="url(#clip0)">
<g opacity="0.1">
<path opacity="0.1" d="M449.676 306.864C455.571 306.864 460.35 300.921 460.35 293.59C460.35 286.26 455.571 280.317 449.676 280.317C443.781 280.317 439.002 286.26 439.002 293.59C439.002 300.921 443.781 306.864 449.676 306.864Z" fill="#3F3D56"/>
<path opacity="0.1" d="M458.126 236.799C459.615 234.33 460.386 231.529 460.358 228.684C460.358 221.352 455.575 215.41 449.675 215.41C443.775 215.41 438.964 221.37 438.964 228.701C438.937 231.547 439.707 234.348 441.196 236.817C439.733 239.294 438.964 242.087 438.964 244.928C438.964 247.769 439.733 250.562 441.196 253.039C439.733 255.517 438.964 258.31 438.964 261.15C438.964 263.991 439.733 266.784 441.196 269.261C439.704 271.729 438.934 274.531 438.964 277.377C438.964 284.7 443.747 290.65 449.638 290.65C455.528 290.65 460.321 284.7 460.321 277.377C460.351 274.531 459.58 271.729 458.089 269.261C459.552 266.784 460.32 263.991 460.32 261.15C460.32 258.31 459.552 255.517 458.089 253.039C459.552 250.562 460.32 247.769 460.32 244.928C460.32 242.087 459.552 239.294 458.089 236.817L458.126 236.799Z" fill="#3F3D56"/>
<path opacity="0.1" d="M449.676 225.753C455.571 225.753 460.35 219.81 460.35 212.48C460.35 205.149 455.571 199.206 449.676 199.206C443.781 199.206 439.002 205.149 439.002 212.48C439.002 219.81 443.781 225.753 449.676 225.753Z" fill="#3F3D56"/>
<path opacity="0.1" d="M449.676 209.531C455.571 209.531 460.35 203.588 460.35 196.257C460.35 188.927 455.571 182.984 449.676 182.984C443.781 182.984 439.002 188.927 439.002 196.257C439.002 203.588 443.781 209.531 449.676 209.531Z" fill="#3F3D56"/>
<path opacity="0.1" d="M409.718 85.2322C408.255 83.4712 406.926 81.6136 405.741 79.6734L433.786 75.2994L403.453 75.5132C400.548 69.4964 398.967 62.9801 398.806 56.363C398.645 49.7458 399.907 43.167 402.515 37.029L443.213 57.0818L405.694 30.8733C409.182 25.0495 413.901 19.9739 419.554 15.9656C425.207 11.9574 431.672 9.10317 438.542 7.58236C445.413 6.06155 452.54 5.90706 459.476 7.12859C466.413 8.35013 473.008 10.9213 478.848 14.6804C484.687 18.4395 489.645 23.3054 493.409 28.972C497.173 34.6387 499.662 40.9837 500.72 47.6081C501.778 54.2325 501.381 60.9931 499.556 67.4649C497.73 73.9368 494.514 79.9799 490.11 85.2144C492.384 87.9584 494.34 90.9272 495.944 94.0694L459.524 112.082L498.346 99.7083C501.074 107.362 501.749 115.542 500.309 123.506C498.87 131.47 495.361 138.968 490.101 145.319C496.035 152.483 499.726 161.088 500.753 170.151C501.78 179.213 500.102 188.368 495.909 196.567C491.716 204.766 485.179 211.679 477.044 216.516C468.91 221.352 459.507 223.917 449.909 223.917C440.312 223.917 430.909 221.352 422.775 216.516C414.64 211.679 408.103 204.766 403.91 196.567C399.717 188.368 398.039 179.213 399.066 170.151C400.093 161.088 403.784 152.483 409.718 145.319C402.627 136.758 398.771 126.182 398.771 115.289C398.771 104.396 402.627 93.82 409.718 85.259V85.2322Z" fill="#FF2D4A"/>
<path opacity="0.1" d="M501.046 115.263C501.065 126.158 497.208 136.74 490.1 145.293C496.034 152.457 499.726 161.062 500.753 170.124C501.78 179.187 500.101 188.341 495.908 196.54C491.716 204.739 485.178 211.653 477.044 216.489C468.909 221.326 459.506 223.891 449.909 223.891C440.312 223.891 430.909 221.326 422.774 216.489C414.64 211.653 408.102 204.739 403.91 196.54C399.717 188.341 398.038 179.187 399.065 170.124C400.092 161.062 403.784 152.457 409.717 145.293C402.861 137.026 501.046 109.811 501.046 115.263Z" fill="black"/>
</g>
<g opacity="0.1">
<path opacity="0.1" d="M574.291 275.123C578.699 275.123 582.273 270.684 582.273 265.208C582.273 259.732 578.699 255.293 574.291 255.293C569.882 255.293 566.309 259.732 566.309 265.208C566.309 270.684 569.882 275.123 574.291 275.123Z" fill="#3F3D56"/>
<path opacity="0.1" d="M580.594 222.778C581.704 220.934 582.277 218.843 582.254 216.72C582.254 211.241 578.681 206.796 574.282 206.796C569.883 206.796 566.3 211.25 566.3 216.72C566.275 218.845 566.852 220.937 567.969 222.778C566.875 224.629 566.3 226.716 566.3 228.84C566.3 230.963 566.875 233.05 567.969 234.902C566.875 236.753 566.3 238.841 566.3 240.964C566.3 243.087 566.875 245.175 567.969 247.026C566.852 248.867 566.275 250.959 566.3 253.084C566.3 258.562 569.873 263.008 574.282 263.008C578.69 263.008 582.254 258.554 582.254 253.084C582.277 250.96 581.704 248.87 580.594 247.026C581.68 245.172 582.25 243.086 582.25 240.964C582.25 238.842 581.68 236.756 580.594 234.902C581.68 233.048 582.25 230.961 582.25 228.84C582.25 226.718 581.68 224.632 580.594 222.778Z" fill="#3F3D56"/>
<path opacity="0.1" d="M574.291 214.511C578.699 214.511 582.273 210.072 582.273 204.596C582.273 199.12 578.699 194.681 574.291 194.681C569.882 194.681 566.309 199.12 566.309 204.596C566.309 210.072 569.882 214.511 574.291 214.511Z" fill="#3F3D56"/>
<path opacity="0.1" d="M574.291 202.386C578.699 202.386 582.273 197.947 582.273 192.471C582.273 186.995 578.699 182.556 574.291 182.556C569.882 182.556 566.309 186.995 566.309 192.471C566.309 197.947 569.882 202.386 574.291 202.386Z" fill="#3F3D56"/>
<path opacity="0.1" d="M544.427 109.507C543.332 108.194 542.338 106.806 541.453 105.356L562.417 102.087L539.746 102.247C537.572 97.7516 536.385 92.882 536.259 87.9361C536.133 82.9903 537.071 78.072 539.015 73.482L569.433 88.4748L541.378 68.8763C544.002 64.5541 547.536 60.792 551.758 57.8247C555.981 54.8574 560.803 52.7487 565.922 51.6302C571.041 50.5116 576.348 50.4073 581.512 51.3237C586.675 52.2401 591.585 54.1575 595.933 56.9563C600.282 59.7551 603.976 63.3752 606.786 67.5905C609.595 71.8059 611.46 76.5261 612.263 81.4564C613.067 86.3868 612.791 91.4215 611.455 96.2463C610.118 101.071 607.748 105.582 604.494 109.499C606.191 111.551 607.653 113.77 608.855 116.117L581.654 129.542L610.665 120.295C612.703 126.015 613.207 132.127 612.131 138.079C611.055 144.03 608.433 149.632 604.503 154.379C608.943 159.731 611.707 166.162 612.479 172.935C613.251 179.709 611.999 186.553 608.868 192.683C605.736 198.813 600.851 203.982 594.771 207.599C588.691 211.215 581.662 213.133 574.488 213.133C567.314 213.133 560.285 211.215 554.205 207.599C548.126 203.982 543.24 198.813 540.109 192.683C536.977 186.553 535.726 179.709 536.498 172.935C537.27 166.162 540.034 159.731 544.474 154.379C539.175 147.982 536.294 140.078 536.294 131.939C536.294 123.799 539.175 115.896 544.474 109.499L544.427 109.507Z" fill="#FF2D4A"/>
<path opacity="0.1" d="M612.674 131.947C612.686 140.089 609.804 147.996 604.495 154.387C608.935 159.739 611.699 166.17 612.471 172.944C613.242 179.718 611.991 186.562 608.859 192.692C605.728 198.822 600.843 203.991 594.763 207.607C588.683 211.224 581.654 213.142 574.48 213.142C567.306 213.142 560.277 211.224 554.197 207.607C548.117 203.991 543.232 198.822 540.101 192.692C536.969 186.562 535.718 179.718 536.489 172.944C537.261 166.17 540.025 159.739 544.465 154.387C539.325 148.214 612.674 127.876 612.674 131.947Z" fill="black"/>
</g>
<g opacity="0.1">
<path opacity="0.1" d="M974.143 271.23C980.038 271.23 984.817 265.287 984.817 257.957C984.817 250.626 980.038 244.683 974.143 244.683C968.248 244.683 963.469 250.626 963.469 257.957C963.469 265.287 968.248 271.23 974.143 271.23Z" fill="#3F3D56"/>
<path opacity="0.1" d="M965.692 201.165C964.203 198.696 963.433 195.895 963.46 193.05C963.46 185.718 968.243 179.776 974.143 179.776C980.043 179.776 984.817 185.718 984.817 193.05C984.844 195.895 984.074 198.696 982.585 201.165C984.048 203.643 984.816 206.436 984.816 209.276C984.816 212.117 984.048 214.91 982.585 217.388C984.048 219.865 984.816 222.658 984.816 225.499C984.816 228.339 984.048 231.132 982.585 233.61C984.076 236.078 984.847 238.88 984.817 241.725C984.817 249.048 980.033 254.999 974.143 254.999C968.253 254.999 963.46 249.048 963.46 241.725C963.43 238.88 964.201 236.078 965.692 233.61C964.229 231.132 963.46 228.339 963.46 225.499C963.46 222.658 964.229 219.865 965.692 217.388C964.229 214.91 963.46 212.117 963.46 209.276C963.46 206.436 964.229 203.643 965.692 201.165Z" fill="#3F3D56"/>
<path opacity="0.1" d="M974.143 190.119C980.038 190.119 984.817 184.176 984.817 176.846C984.817 169.515 980.038 163.572 974.143 163.572C968.248 163.572 963.469 169.515 963.469 176.846C963.469 184.176 968.248 190.119 974.143 190.119Z" fill="#3F3D56"/>
<path opacity="0.1" d="M974.143 173.897C980.038 173.897 984.817 167.954 984.817 160.624C984.817 153.293 980.038 147.35 974.143 147.35C968.248 147.35 963.469 153.293 963.469 160.624C963.469 167.954 968.248 173.897 974.143 173.897Z" fill="#3F3D56"/>
<path opacity="0.1" d="M1014.1 49.5985C1015.56 47.8374 1016.89 45.9798 1018.08 44.0396L990.032 39.6656L1020.37 39.8794C1023.27 33.8626 1024.85 27.3463 1025.01 20.7292C1025.17 14.112 1023.91 7.53325 1021.3 1.39524L980.605 21.448L1018.12 -4.76045C1014.64 -10.5843 1009.92 -15.6599 1004.26 -19.6681C998.611 -23.6764 992.146 -26.5306 985.276 -28.0514C978.405 -29.5722 971.278 -29.7267 964.341 -28.5052C957.405 -27.2837 950.81 -24.7125 944.97 -20.9534C939.131 -17.1943 934.173 -12.3284 930.409 -6.66175C926.645 -0.995079 924.156 5.34988 923.098 11.9743C922.04 18.5987 922.437 25.3593 924.262 31.8311C926.088 38.303 929.304 44.3461 933.708 49.5806C931.433 52.3246 929.478 55.2934 927.874 58.4356L964.294 76.4483L925.472 64.0746C922.744 71.7285 922.069 79.9081 923.508 87.8724C924.948 95.8367 928.457 103.334 933.717 109.685C927.783 116.849 924.092 125.455 923.065 134.517C922.038 143.58 923.716 152.734 927.909 160.933C932.102 169.132 938.639 176.045 946.773 180.882C954.908 185.718 964.311 188.283 973.908 188.283C983.505 188.283 992.909 185.718 1001.04 180.882C1009.18 176.045 1015.72 169.132 1019.91 160.933C1024.1 152.734 1025.78 143.58 1024.75 134.517C1023.73 125.455 1020.03 116.849 1014.1 109.685C1021.19 101.124 1025.05 90.548 1025.05 79.6553C1025.05 68.7626 1021.19 58.1862 1014.1 49.6252V49.5985Z" fill="#FF2D4A"/>
<path opacity="0.1" d="M922.772 79.6289C922.753 90.5245 926.61 101.106 933.717 109.659C927.784 116.823 924.092 125.428 923.065 134.491C922.038 143.553 923.717 152.707 927.91 160.907C932.102 169.106 938.639 176.019 946.774 180.855C954.908 185.692 964.312 188.257 973.909 188.257C983.506 188.257 992.909 185.692 1001.04 180.855C1009.18 176.019 1015.72 169.106 1019.91 160.907C1024.1 152.707 1025.78 143.553 1024.75 134.491C1023.73 125.428 1020.03 116.823 1014.1 109.659C1020.96 101.392 922.772 74.177 922.772 79.6289Z" fill="black"/>
</g>
<g opacity="0.1">
<path opacity="0.1" d="M871.099 269.778C875.507 269.778 879.081 265.339 879.081 259.863C879.081 254.387 875.507 249.948 871.099 249.948C866.691 249.948 863.117 254.387 863.117 259.863C863.117 265.339 866.691 269.778 871.099 269.778Z" fill="#3F3D56"/>
<path opacity="0.1" d="M864.796 217.433C863.686 215.589 863.113 213.498 863.135 211.375C863.135 205.896 866.709 201.451 871.108 201.451C875.507 201.451 879.09 205.905 879.09 211.375C879.114 213.5 878.538 215.592 877.421 217.433C878.515 219.284 879.09 221.372 879.09 223.495C879.09 225.618 878.515 227.706 877.421 229.557C878.515 231.408 879.09 233.496 879.09 235.619C879.09 237.742 878.515 239.83 877.421 241.681C878.538 243.522 879.114 245.614 879.09 247.739C879.09 253.218 875.517 257.663 871.108 257.663C866.7 257.663 863.135 253.209 863.135 247.739C863.113 245.616 863.686 243.525 864.796 241.681C863.71 239.827 863.14 237.741 863.14 235.619C863.14 233.498 863.71 231.411 864.796 229.557C863.71 227.703 863.14 225.617 863.14 223.495C863.14 221.373 863.71 219.287 864.796 217.433Z" fill="#3F3D56"/>
<path opacity="0.1" d="M871.099 209.166C875.507 209.166 879.081 204.727 879.081 199.251C879.081 193.775 875.507 189.336 871.099 189.336C866.691 189.336 863.117 193.775 863.117 199.251C863.117 204.727 866.691 209.166 871.099 209.166Z" fill="#3F3D56"/>
<path opacity="0.1" d="M871.099 197.041C875.507 197.041 879.081 192.602 879.081 187.126C879.081 181.651 875.507 177.211 871.099 177.211C866.691 177.211 863.117 181.651 863.117 187.126C863.117 192.602 866.691 197.041 871.099 197.041Z" fill="#3F3D56"/>
<path opacity="0.1" d="M900.964 104.163C902.059 102.849 903.053 101.461 903.937 100.011L882.974 96.742L905.644 96.9024C907.819 92.4069 909.006 87.5373 909.131 82.5914C909.257 77.6455 908.32 72.7272 906.376 68.1372L875.958 83.13L904.012 63.5316C901.389 59.2094 897.855 55.4473 893.632 52.48C889.409 49.5127 884.588 47.404 879.469 46.2854C874.349 45.1669 869.042 45.0626 863.879 45.979C858.715 46.8954 853.806 48.8128 849.458 51.6116C845.109 54.4104 841.415 58.0304 838.605 62.2458C835.795 66.4612 833.931 71.1813 833.127 76.1117C832.324 81.0421 832.599 86.0768 833.936 90.9016C835.273 95.7264 837.643 100.238 840.897 104.154C839.2 106.207 837.738 108.425 836.536 110.773L863.736 124.198L834.782 114.96C832.744 120.679 832.24 126.792 833.316 132.743C834.392 138.694 837.014 144.297 840.944 149.043C836.504 154.395 833.74 160.826 832.968 167.6C832.196 174.374 833.448 181.217 836.579 187.347C839.711 193.477 844.596 198.646 850.676 202.263C856.756 205.879 863.785 207.797 870.959 207.797C878.133 207.797 885.162 205.879 891.241 202.263C897.321 198.646 902.207 193.477 905.338 187.347C908.47 181.217 909.721 174.374 908.949 167.6C908.177 160.826 905.413 154.395 900.973 149.043C906.272 142.646 909.153 134.743 909.153 126.603C909.153 118.463 906.272 110.56 900.973 104.163H900.964Z" fill="#FF2D4A"/>
<path opacity="0.1" d="M832.72 126.603C832.707 134.744 835.589 142.651 840.899 149.043C836.459 154.395 833.695 160.825 832.923 167.599C832.151 174.373 833.403 181.217 836.534 187.347C839.666 193.477 844.551 198.646 850.631 202.263C856.711 205.879 863.74 207.797 870.914 207.797C878.087 207.797 885.116 205.879 891.196 202.263C897.276 198.646 902.161 193.477 905.293 187.347C908.425 181.217 909.676 174.373 908.904 167.599C908.132 160.825 905.368 154.395 900.928 149.043C906.068 142.869 832.72 122.531 832.72 126.603Z" fill="black"/>
</g>
<g opacity="0.1">
<path opacity="0.1" d="M57.7677 271.23C63.6628 271.23 68.4416 265.287 68.4416 257.957C68.4416 250.626 63.6628 244.683 57.7677 244.683C51.8726 244.683 47.0938 250.626 47.0938 257.957C47.0938 265.287 51.8726 271.23 57.7677 271.23Z" fill="#3F3D56"/>
<path opacity="0.1" d="M66.2103 201.165C67.6994 198.696 68.4699 195.895 68.4427 193.05C68.4427 185.718 63.6591 179.776 57.7687 179.776C51.8784 179.776 47.0948 185.718 47.0948 193.05C47.0647 195.894 47.8319 198.695 49.3177 201.165C47.8597 203.644 47.0941 206.437 47.0941 209.276C47.0941 212.116 47.8597 214.908 49.3177 217.388C47.8597 219.867 47.0941 222.659 47.0941 225.499C47.0941 228.338 47.8597 231.131 49.3177 233.61C47.829 236.079 47.0615 238.88 47.0948 241.725C47.0948 249.048 51.869 254.999 57.7687 254.999C63.6685 254.999 68.4708 249.066 68.4708 241.743C68.5008 238.897 67.7301 236.096 66.2385 233.628C67.7018 231.15 68.4703 228.357 68.4703 225.516C68.4703 222.676 67.7018 219.883 66.2385 217.405C67.7018 214.928 68.4703 212.135 68.4703 209.294C68.4703 206.454 67.7018 203.661 66.2385 201.183L66.2103 201.165Z" fill="#3F3D56"/>
<path opacity="0.1" d="M57.7677 190.119C63.6628 190.119 68.4416 184.176 68.4416 176.845C68.4416 169.515 63.6628 163.572 57.7677 163.572C51.8726 163.572 47.0938 169.515 47.0938 176.845C47.0938 184.176 51.8726 190.119 57.7677 190.119Z" fill="#3F3D56"/>
<path opacity="0.1" d="M57.7677 173.897C63.6628 173.897 68.4416 167.954 68.4416 160.624C68.4416 153.293 63.6628 147.35 57.7677 147.35C51.8726 147.35 47.0938 153.293 47.0938 160.624C47.0938 167.954 51.8726 173.897 57.7677 173.897Z" fill="#3F3D56"/>
<path opacity="0.1" d="M17.8208 49.5975C16.3611 47.8343 15.0323 45.9769 13.8439 44.0386L41.8981 39.6646L11.5365 39.923C8.63241 33.9061 7.05137 27.3898 6.8901 20.7727C6.72882 14.1556 7.9907 7.57678 10.5985 1.43877L51.3058 21.4915L13.7876 -4.71692C17.2844 -10.5234 22.0065 -15.5813 27.6577 -19.5735C33.3089 -23.5657 39.7675 -26.4061 46.6286 -27.9167C53.4897 -29.4273 60.6054 -29.5756 67.5297 -28.3521C74.4539 -27.1287 81.0375 -24.56 86.8676 -20.807C92.6977 -17.054 97.6486 -12.1976 101.41 -6.54227C105.172 -0.88695 107.663 5.44539 108.727 12.0578C109.791 18.6702 109.406 25.4202 107.595 31.8845C105.784 38.3489 102.587 44.3883 98.2037 49.6242C100.478 52.3681 102.434 55.3369 104.038 58.4791L67.6075 76.4473L106.439 64.0736C109.161 71.729 109.832 79.9079 108.391 87.8713C106.95 95.8347 103.442 103.332 98.1849 109.684C104.119 116.848 107.81 125.454 108.837 134.516C109.864 143.579 108.185 152.733 103.993 160.932C99.8002 169.131 93.2628 176.044 85.1283 180.881C76.9939 185.717 67.5905 188.282 57.9935 188.282C48.3964 188.282 38.9931 185.717 30.8586 180.881C22.7241 176.044 16.1868 169.131 11.9941 160.932C7.80146 152.733 6.1227 143.579 7.14977 134.516C8.17684 125.454 11.8683 116.848 17.802 109.684C10.7108 101.123 6.85547 90.547 6.85547 79.6543C6.85547 68.7616 10.7108 58.1852 17.802 49.6242L17.8208 49.5975Z" fill="#FF2D4A"/>
<path opacity="0.1" d="M109.13 79.6284C109.149 90.524 105.292 101.106 98.1843 109.659C104.118 116.822 107.81 125.428 108.837 134.49C109.864 143.553 108.185 152.707 103.992 160.906C99.7996 169.105 93.2623 176.018 85.1278 180.855C76.9933 185.691 67.5899 188.256 57.9929 188.256C48.3958 188.256 38.9925 185.691 30.858 180.855C22.7235 176.018 16.1862 169.105 11.9935 160.906C7.80088 152.707 6.12211 143.553 7.14918 134.49C8.17625 125.428 11.8677 116.822 17.8015 109.659C10.945 101.392 109.13 74.1765 109.13 79.6284Z" fill="black"/>
</g>
<g opacity="0.1">
<path opacity="0.1" d="M160.802 269.778C165.211 269.778 168.784 265.339 168.784 259.863C168.784 254.387 165.211 249.948 160.802 249.948C156.394 249.948 152.82 254.387 152.82 259.863C152.82 265.339 156.394 269.778 160.802 269.778Z" fill="#3F3D56"/>
<path opacity="0.1" d="M167.115 217.433C168.225 215.589 168.798 213.498 168.775 211.375C168.775 205.896 165.211 201.451 160.803 201.451C156.394 201.451 152.821 205.905 152.821 211.375C152.801 213.499 153.377 215.59 154.49 217.433C153.396 219.284 152.821 221.372 152.821 223.495C152.821 225.618 153.396 227.706 154.49 229.557C153.396 231.408 152.821 233.496 152.821 235.619C152.821 237.742 153.396 239.83 154.49 241.681C153.377 243.524 152.801 245.615 152.821 247.739C152.821 253.218 156.394 257.663 160.803 257.663C165.211 257.663 168.775 253.209 168.775 247.739C168.798 245.616 168.225 243.525 167.115 241.681C168.201 239.827 168.771 237.741 168.771 235.619C168.771 233.498 168.201 231.411 167.115 229.557C168.201 227.703 168.771 225.617 168.771 223.495C168.771 221.373 168.201 219.287 167.115 217.433Z" fill="#3F3D56"/>
<path opacity="0.1" d="M160.802 209.166C165.211 209.166 168.784 204.727 168.784 199.251C168.784 193.775 165.211 189.336 160.802 189.336C156.394 189.336 152.82 193.775 152.82 199.251C152.82 204.727 156.394 209.166 160.802 209.166Z" fill="#3F3D56"/>
<path opacity="0.1" d="M160.802 197.041C165.211 197.041 168.784 192.602 168.784 187.126C168.784 181.651 165.211 177.211 160.802 177.211C156.394 177.211 152.82 181.651 152.82 187.126C152.82 192.602 156.394 197.041 160.802 197.041Z" fill="#3F3D56"/>
<path opacity="0.1" d="M130.938 104.163C129.846 102.847 128.853 101.46 127.965 100.011L148.928 96.742L126.258 96.9024C124.083 92.4068 122.897 87.5373 122.771 82.5914C122.645 77.6455 123.583 72.7272 125.526 68.1372L155.944 83.13L127.89 63.5316C130.514 59.2094 134.047 55.4473 138.27 52.48C142.493 49.5127 147.314 47.404 152.434 46.2854C157.553 45.1669 162.86 45.0626 168.023 45.979C173.187 46.8954 178.096 48.8128 182.445 51.6116C186.793 54.4104 190.488 58.0304 193.297 62.2458C196.107 66.4612 197.972 71.1813 198.775 76.1117C199.578 81.0421 199.303 86.0768 197.966 90.9016C196.629 95.7264 194.26 100.238 191.005 104.154C192.709 106.202 194.172 108.422 195.367 110.773L168.166 124.198L197.177 114.951C199.215 120.671 199.718 126.783 198.642 132.734C197.566 138.685 194.945 144.288 191.015 149.034C195.454 154.386 198.219 160.817 198.99 167.591C199.762 174.365 198.511 181.208 195.379 187.338C192.248 193.468 187.363 198.637 181.283 202.254C175.203 205.87 168.174 207.788 161 207.788C153.826 207.788 146.797 205.87 140.717 202.254C134.637 198.637 129.752 193.468 126.621 187.338C123.489 181.208 122.238 174.365 123.009 167.591C123.781 160.817 126.545 154.386 130.985 149.034C125.686 142.637 122.805 134.734 122.805 126.594C122.805 118.454 125.686 110.551 130.985 104.154L130.938 104.163Z" fill="#FF2D4A"/>
<path opacity="0.1" d="M199.185 126.603C199.198 134.744 196.316 142.651 191.006 149.043C195.446 154.395 198.21 160.825 198.982 167.599C199.754 174.373 198.503 181.217 195.371 187.347C192.24 193.477 187.354 198.646 181.274 202.263C175.195 205.879 168.166 207.797 160.992 207.797C153.818 207.797 146.789 205.879 140.709 202.263C134.629 198.646 129.744 193.477 126.612 187.347C123.481 181.217 122.229 174.373 123.001 167.599C123.773 160.825 126.537 154.395 130.977 149.043C125.818 142.869 199.185 122.531 199.185 126.603Z" fill="black"/>
</g>
<path opacity="0.1" d="M514 418.191C797.874 418.191 1028 414.658 1028 410.299C1028 405.94 797.874 402.406 514 402.406C230.126 402.406 0 405.94 0 410.299C0 414.658 230.126 418.191 514 418.191Z" fill="#FF2D4A"/>
<path opacity="0.1" d="M514 483C797.874 483 1028 479.466 1028 475.107C1028 470.748 797.874 467.214 514 467.214C230.126 467.214 0 470.748 0 475.107C0 479.466 230.126 483 514 483Z" fill="#FF2D4A"/>
<path opacity="0.1" d="M514 282.936C797.874 282.936 1028 279.402 1028 275.043C1028 270.684 797.874 267.15 514 267.15C230.126 267.15 0 270.684 0 275.043C0 279.402 230.126 282.936 514 282.936Z" fill="#FF2D4A"/>
<path opacity="0.1" d="M758.61 69.3219C755.261 68.7213 751.8 69.0811 748.667 70.3553C746.787 71.1511 744.751 71.5624 742.693 71.5624C740.634 71.5624 738.598 71.1511 736.718 70.3553C734.493 69.4278 732.083 68.9705 729.653 69.0151C727.224 69.0597 724.834 69.6051 722.649 70.6136C721.403 71.2418 720.016 71.5721 718.606 71.5757C712.903 71.5757 708.166 66.1238 707.182 58.9347C708.304 58.1402 709.259 57.1519 709.996 56.0217C713.335 50.9083 718.503 47.6211 724.318 47.6211C730.133 47.6211 735.236 50.8637 738.575 55.9237C739.569 57.4525 740.964 58.7106 742.622 59.5755C744.281 60.4404 746.147 60.8825 748.039 60.8589H748.189C752.776 60.8144 756.706 64.2708 758.61 69.3219Z" fill="#FF2D4A"/>
<path opacity="0.1" d="M775.971 46.739L766.76 52.28L772.388 42.6234C770.803 41.4252 768.842 40.7637 766.816 40.7437H766.666C766.038 40.7518 765.41 40.7071 764.79 40.6101L761.62 42.4898L762.961 40.1736C760.745 39.445 758.83 38.0661 757.493 36.2361L751.865 39.6034L755.392 33.5101C752.128 29.7864 747.719 27.5059 742.88 27.5059C737.064 27.5059 731.896 30.7841 728.548 35.8975C727.56 37.4265 726.165 38.6802 724.503 39.5313C722.841 40.3825 720.971 40.8008 719.084 40.7437H718.774C712.358 40.7437 707.162 47.6477 707.162 56.1641C707.162 64.6805 712.358 71.5934 718.774 71.5934C720.183 71.5845 721.57 71.2546 722.817 70.6313C725.001 69.6203 727.391 69.0727 729.82 69.0265C732.25 68.9804 734.661 69.4368 736.886 70.3641C738.765 71.1654 740.801 71.5797 742.861 71.5797C744.92 71.5797 746.957 71.1654 748.836 70.3641C751.043 69.4576 753.43 69.0115 755.834 69.0561C758.239 69.1007 760.605 69.6348 762.774 70.6224C764.007 71.2355 765.377 71.5593 766.769 71.5667C773.185 71.5667 778.381 64.6538 778.381 56.1374C778.42 52.8622 777.591 49.6304 775.971 46.739Z" fill="#FF2D4A"/>
<path opacity="0.1" d="M366.984 64.5023C364.637 64.0811 362.211 64.3323 360.015 65.2238C358.7 65.7818 357.276 66.0702 355.836 66.0702C354.396 66.0702 352.972 65.7818 351.658 65.2238C350.102 64.5748 348.416 64.2553 346.716 64.2876C345.017 64.3199 343.346 64.7032 341.819 65.4109C340.949 65.8415 339.985 66.0704 339.005 66.079C335.018 66.079 331.698 62.2663 331.004 57.233C331.8 56.6791 332.478 55.9869 333.002 55.193C335.337 51.6297 338.958 49.3135 343.029 49.3135C347.099 49.3135 350.673 51.5851 353.008 55.1217C353.706 56.1923 354.683 57.0733 355.845 57.6789C357.007 58.2846 358.314 58.5944 359.64 58.5782H359.743C362.894 58.5604 365.643 60.9835 366.984 64.5023Z" fill="#FF2D4A"/>
<path opacity="0.1" d="M379.132 48.7077L372.688 52.5918L376.599 45.8303C375.493 44.9897 374.123 44.5255 372.707 44.5119H372.594C372.148 44.5195 371.702 44.4867 371.262 44.4139L369.077 45.7324L370.015 44.111C368.466 43.5992 367.126 42.6359 366.188 41.3583L362.277 43.7101L364.753 39.4519C363.713 38.1766 362.387 37.1369 360.872 36.4081C359.357 35.6793 357.69 35.2797 355.992 35.2383C351.922 35.2383 348.301 37.5366 345.965 41.1178C345.273 42.1885 344.295 43.0664 343.131 43.6625C341.966 44.2585 340.656 44.5516 339.334 44.5119H339.118C334.626 44.5119 330.986 49.3402 330.986 55.3088C330.986 61.2775 334.626 66.1058 339.118 66.1058C340.1 66.0986 341.065 65.8663 341.932 65.4288C343.459 64.725 345.129 64.3446 346.827 64.3138C348.524 64.2831 350.208 64.6027 351.762 65.2506C353.085 65.8236 354.52 66.1271 355.973 66.1414C357.405 66.139 358.82 65.8539 360.129 65.3041C361.673 64.6691 363.344 64.3565 365.026 64.3872C366.709 64.418 368.366 64.7914 369.883 65.4822C370.752 65.9143 371.717 66.1404 372.697 66.1414C377.181 66.1414 380.82 61.3042 380.82 55.3445C380.858 53.0322 380.277 50.7485 379.132 48.7077Z" fill="#FF2D4A"/>
<path opacity="0.1" d="M252.863 134.353C255.207 133.932 257.63 134.184 259.823 135.074C261.139 135.633 262.565 135.921 264.006 135.921C265.448 135.921 266.873 135.633 268.189 135.074C269.745 134.426 271.431 134.107 273.13 134.137C274.828 134.168 276.5 134.549 278.029 135.253C278.895 135.691 279.861 135.923 280.843 135.93C284.829 135.93 288.149 132.108 288.834 127.075C288.039 126.523 287.364 125.83 286.845 125.035C284.501 121.471 280.88 119.164 276.819 119.164C272.757 119.164 269.174 121.427 266.829 124.972C266.133 126.042 265.157 126.922 263.997 127.527C262.837 128.133 261.531 128.443 260.207 128.429H260.104C256.943 128.447 254.186 130.861 252.863 134.353Z" fill="#FF2D4A"/>
<path opacity="0.1" d="M240.707 118.585L247.161 122.469L243.24 115.717C244.348 114.873 245.722 114.406 247.142 114.389H247.245C247.694 114.395 248.143 114.366 248.586 114.3L250.772 115.61L249.834 113.997C251.38 113.484 252.716 112.521 253.651 111.245L257.563 113.596L255.124 109.329C256.164 108.055 257.49 107.017 259.005 106.289C260.521 105.562 262.187 105.164 263.884 105.125C267.946 105.125 271.576 107.423 273.911 111.004C274.603 112.073 275.579 112.95 276.742 113.546C277.905 114.142 279.212 114.436 280.533 114.398H280.758C285.242 114.398 288.881 119.235 288.881 125.195C288.881 131.155 285.242 135.992 280.758 135.992C279.777 135.988 278.812 135.759 277.944 135.324C276.417 134.616 274.746 134.233 273.046 134.201C271.347 134.168 269.661 134.488 268.105 135.137C266.787 135.715 265.355 136.018 263.903 136.028C262.469 136.027 261.05 135.741 259.739 135.19C258.195 134.556 256.527 134.243 254.846 134.274C253.164 134.304 251.509 134.678 249.993 135.368C249.125 135.8 248.16 136.027 247.179 136.028C242.687 136.028 239.047 131.199 239.047 125.231C239.004 122.918 239.575 120.632 240.707 118.585Z" fill="#FF2D4A"/>
<path d="M623.094 407.742C625.542 403.431 622.765 398.157 619.576 394.317C616.387 390.478 612.485 386.478 612.57 381.587C612.692 374.558 620.552 370.398 626.827 366.675C631.486 363.899 635.784 360.61 639.63 356.875C641.238 355.438 642.568 353.743 643.56 351.869C644.864 349.125 644.826 345.989 644.742 342.96C644.473 332.93 643.951 322.905 643.175 312.886" stroke="#3F3D56" stroke-width="4" stroke-miterlimit="10"/>
<path d="M655.115 312.387C655.025 310.549 654.449 308.763 653.441 307.192C652.433 305.621 651.025 304.317 649.347 303.398L646.758 308.253L646.843 302.374C644.495 301.717 641.988 301.786 639.684 302.571C637.381 303.355 635.399 304.815 634.025 306.739C632.652 308.662 631.957 310.951 632.042 313.274C632.127 315.597 632.987 317.834 634.498 319.663C636.009 321.492 638.092 322.817 640.448 323.448C642.803 324.079 645.309 323.983 647.603 323.173C649.897 322.363 651.861 320.882 653.211 318.943C654.562 317.005 655.228 314.709 655.115 312.387Z" fill="#FF2D4A"/>
<path d="M634.518 386.611C633.356 388.755 631.483 390.476 629.188 391.507C626.893 392.538 624.304 392.822 621.822 392.315C619.34 391.808 617.103 390.538 615.458 388.702C613.812 386.865 612.85 384.565 612.719 382.157C612.633 380.638 612.889 379.12 613.47 377.703C614.32 375.636 615.81 373.863 617.743 372.616C619.676 371.37 621.962 370.71 624.298 370.722C626.635 370.735 628.912 371.42 630.83 372.687C632.748 373.953 634.217 375.743 635.043 377.819L627.83 383.395L635.765 381.614C635.774 383.35 635.347 385.063 634.518 386.611Z" fill="#FF2D4A"/>
<path d="M628.816 365.321C625.983 365.447 623.199 364.579 620.996 362.881C618.794 361.183 617.327 358.775 616.874 356.115C616.422 353.455 617.017 350.73 618.544 348.46C620.072 346.19 622.427 344.534 625.158 343.807L625.092 348.323L627.709 343.406C630.769 343.27 633.76 344.294 636.025 346.253C638.29 348.212 639.643 350.945 639.786 353.851C639.929 356.757 638.85 359.598 636.788 361.749C634.725 363.9 631.848 365.185 628.788 365.321H628.816Z" fill="#FF2D4A"/>
<path d="M656.851 347.601C655.061 347.689 653.274 347.38 651.631 346.698C649.989 346.016 648.536 344.981 647.388 343.673C646.24 342.366 645.428 340.822 645.017 339.165C644.606 337.508 644.606 335.783 645.019 334.126C645.432 332.469 646.245 330.926 647.394 329.619C648.543 328.313 649.997 327.278 651.64 326.598C653.283 325.917 655.071 325.609 656.861 325.699C658.651 325.788 660.394 326.272 661.953 327.112L659.918 332.457L664.073 328.555C665.754 330.019 666.941 331.922 667.484 334.025C668.027 336.128 667.903 338.337 667.127 340.373C666.35 342.409 664.956 344.181 663.121 345.466C661.286 346.751 659.091 347.491 656.814 347.592L656.851 347.601Z" fill="#FF2D4A"/>
<path opacity="0.1" d="M653.559 315.309C650.895 315.585 648.306 316.369 645.624 316.529C642.941 316.689 639.996 316.075 638.326 314.106C637.541 312.959 636.827 311.769 636.188 310.543C635.458 309.462 634.46 308.568 633.28 307.941C632.533 309.331 632.107 310.856 632.03 312.415C631.953 313.974 632.228 315.53 632.835 316.98C633.442 318.43 634.368 319.74 635.551 320.823C636.734 321.906 638.147 322.737 639.695 323.26C641.243 323.782 642.89 323.986 644.528 323.855C646.165 323.725 647.754 323.264 649.189 322.504C650.624 321.744 651.871 320.702 652.848 319.447C653.825 318.192 654.508 316.754 654.853 315.228C654.431 315.237 653.99 315.264 653.559 315.309Z" fill="black"/>
<path opacity="0.1" d="M656.85 347.602C654.859 347.691 652.878 347.29 651.099 346.436C649.32 345.583 647.804 344.307 646.698 342.732C645.592 341.157 644.934 339.337 644.789 337.449C644.643 335.561 645.014 333.67 645.867 331.958C646.782 332.546 647.569 333.296 648.183 334.168C648.873 335.417 649.637 336.627 650.472 337.793C652.273 339.798 655.349 340.466 658.135 340.332C660.921 340.199 663.613 339.441 666.389 339.219C666.774 339.219 667.158 339.165 667.552 339.156C666.978 341.478 665.622 343.558 663.691 345.082C661.76 346.606 659.358 347.49 656.85 347.602Z" fill="black"/>
<path opacity="0.1" d="M628.815 365.321C626.845 365.408 624.884 365.015 623.119 364.178C621.354 363.342 619.844 362.09 618.733 360.542C617.623 358.994 616.948 357.201 616.774 355.335C616.599 353.469 616.931 351.592 617.738 349.882C618.69 350.477 619.519 351.232 620.186 352.109C620.942 353.388 621.779 354.623 622.69 355.806C624.632 357.864 627.915 358.595 630.86 358.479C633.805 358.363 636.488 357.757 639.302 357.588C638.601 359.744 637.219 361.642 635.343 363.026C633.467 364.409 631.188 365.21 628.815 365.321Z" fill="black"/>
<path opacity="0.1" d="M634.518 386.611C633.356 388.756 631.483 390.476 629.188 391.508C626.893 392.539 624.304 392.823 621.822 392.315C619.34 391.808 617.103 390.538 615.458 388.702C613.812 386.866 612.85 384.565 612.719 382.157C612.633 380.639 612.889 379.12 613.47 377.703C614.421 378.296 615.274 379.02 616.002 379.85C617.1 381.115 617.822 382.523 619.098 383.743C621.452 385.943 625.269 386.852 628.655 386.932C630.615 386.938 632.572 386.831 634.518 386.611Z" fill="black"/>
<path d="M50.9412 343.602C53.3893 339.29 50.6129 334.017 47.4239 330.177C44.2348 326.338 40.3329 322.32 40.4174 317.447C40.5393 310.418 48.3994 306.258 54.6743 302.534C59.3342 299.759 63.6318 296.47 67.4774 292.735C69.0856 291.297 70.4158 289.603 71.4074 287.729C72.7112 284.985 72.6737 281.849 72.5893 278.82C72.3141 268.789 71.792 258.765 71.0229 248.746" stroke="#3F3D56" stroke-width="4" stroke-miterlimit="10"/>
<path d="M82.963 248.246C82.8724 246.409 82.2966 244.622 81.2886 243.052C80.2805 241.481 78.8727 240.176 77.1945 239.258L74.6058 244.113L74.6902 238.233C72.3424 237.577 69.8358 237.646 67.532 238.43C65.2282 239.215 63.2465 240.674 61.8729 242.598C60.4993 244.522 59.8048 246.81 59.8898 249.134C59.9747 251.457 60.8347 253.694 62.3455 255.523C63.8564 257.351 65.94 258.677 68.2955 259.307C70.6511 259.938 73.1567 259.842 75.4509 259.032C77.745 258.223 79.7089 256.742 81.0592 254.803C82.4094 252.864 83.0761 250.568 82.963 248.246Z" fill="#FF2D4A"/>
<path d="M62.3653 322.471C61.2038 324.615 59.3305 326.336 57.0355 327.367C54.7405 328.398 52.1517 328.682 49.6696 328.175C47.1876 327.668 44.9507 326.398 43.3052 324.561C41.6598 322.725 40.6974 320.425 40.5671 318.017C40.4808 316.498 40.7367 314.98 41.3175 313.563C42.1679 311.496 43.6579 309.722 45.591 308.476C47.5241 307.23 49.8096 306.57 52.1459 306.582C54.4822 306.595 56.7597 307.28 58.6778 308.546C60.596 309.813 62.0648 311.603 62.8905 313.678L55.6776 319.255L63.6127 317.473C63.6218 319.21 63.1941 320.923 62.3653 322.471Z" fill="#FF2D4A"/>
<path d="M56.6619 301.18C53.8283 301.307 51.0447 300.438 48.8421 298.74C46.6396 297.043 45.1722 294.634 44.72 291.974C44.2677 289.314 44.8622 286.59 46.3901 284.32C47.918 282.049 50.2722 280.393 53.0038 279.666L52.9382 284.183L55.5551 279.265C57.0701 279.198 58.5843 279.415 60.0111 279.903C61.4379 280.392 62.7494 281.143 63.8708 282.112C64.9922 283.082 65.9015 284.253 66.5467 285.556C67.1919 286.86 67.5604 288.272 67.6313 289.71C67.7021 291.149 67.4738 292.587 66.9595 293.943C66.4451 295.298 65.6548 296.543 64.6335 297.608C63.6123 298.673 62.3802 299.537 61.0076 300.15C59.635 300.763 58.1488 301.113 56.6337 301.18H56.6619Z" fill="#FF2D4A"/>
<path d="M84.6968 283.461C82.9066 283.549 81.1194 283.24 79.4769 282.558C77.8343 281.876 76.3815 280.841 75.2334 279.533C74.0854 278.225 73.2736 276.682 72.8625 275.025C72.4513 273.368 72.4521 271.642 72.8647 269.986C73.2773 268.329 74.0904 266.786 75.2396 265.479C76.3888 264.173 77.8426 263.138 79.4858 262.458C81.1289 261.777 82.9163 261.469 84.7064 261.559C86.4966 261.648 88.2402 262.132 89.7993 262.972L87.7639 268.317L91.9191 264.415C93.5996 265.879 94.7864 267.782 95.3298 269.885C95.8731 271.988 95.7488 274.197 94.9723 276.233C94.1959 278.269 92.8022 280.041 90.9668 281.326C89.1315 282.611 86.9367 283.351 84.6593 283.452L84.6968 283.461Z" fill="#FF2D4A"/>
<path opacity="0.1" d="M81.4043 251.169C78.7405 251.445 76.1518 252.229 73.4692 252.389C70.7867 252.549 67.8415 251.935 66.1719 249.966C65.3867 248.819 64.6726 247.629 64.0334 246.403C63.3042 245.321 62.3055 244.428 61.1257 243.801C60.3787 245.191 59.9526 246.716 59.8759 248.275C59.7991 249.834 60.0735 251.39 60.6807 252.84C61.2879 254.29 62.2139 255.6 63.3969 256.683C64.5799 257.766 65.9925 258.597 67.5405 259.119C69.0885 259.642 70.7361 259.845 72.3733 259.715C74.0105 259.585 75.5997 259.124 77.0345 258.364C78.4693 257.604 79.7168 256.562 80.6935 255.307C81.6703 254.052 82.3539 252.614 82.6987 251.088C82.2766 251.097 81.8358 251.124 81.4043 251.169Z" fill="black"/>
<path opacity="0.1" d="M84.6978 283.461C82.7069 283.551 80.7256 283.15 78.9465 282.296C77.1675 281.443 75.6513 280.167 74.5455 278.592C73.4397 277.017 72.782 275.197 72.6363 273.309C72.4907 271.421 72.862 269.53 73.7143 267.818C74.6296 268.406 75.4164 269.156 76.031 270.028C76.7209 271.276 77.485 272.487 78.3197 273.653C80.1205 275.658 83.197 276.326 85.9828 276.192C88.7685 276.059 91.4604 275.301 94.2368 275.079C94.6213 275.079 95.0059 275.025 95.3998 275.016C94.8254 277.338 93.4698 279.418 91.5386 280.942C89.6074 282.466 87.2058 283.35 84.6978 283.461Z" fill="black"/>
<path opacity="0.1" d="M56.6628 301.18C54.6925 301.268 52.7314 300.874 50.9665 300.038C49.2017 299.201 47.6919 297.949 46.5811 296.401C45.4703 294.853 44.7956 293.061 44.6213 291.195C44.4471 289.329 44.779 287.451 45.5855 285.742C46.5372 286.337 47.3668 287.091 48.0336 287.969C48.7899 289.248 49.6262 290.482 50.5379 291.666C52.4795 293.724 55.7623 294.454 58.7075 294.338C61.6527 294.222 64.3353 293.617 67.1491 293.447C66.4488 295.603 65.0667 297.502 63.1905 298.885C61.3144 300.269 59.0352 301.07 56.6628 301.18Z" fill="black"/>
<path opacity="0.1" d="M62.3653 322.471C61.2038 324.615 59.3305 326.336 57.0355 327.367C54.7405 328.398 52.1517 328.682 49.6696 328.175C47.1876 327.668 44.9507 326.398 43.3052 324.561C41.6598 322.725 40.6974 320.425 40.5671 318.017C40.4808 316.498 40.7367 314.98 41.3175 313.562C42.2686 314.156 43.122 314.879 43.85 315.709C44.9474 316.974 45.6696 318.382 46.9453 319.602C49.2995 321.803 53.117 322.711 56.503 322.792C58.4621 322.797 60.4198 322.69 62.3653 322.471Z" fill="black"/>
<path d="M431.948 270.223C429.5 265.921 432.276 260.647 435.475 256.807C438.673 252.968 442.556 248.968 442.472 244.077C442.359 237.04 434.499 232.888 428.215 229.165C423.557 226.391 419.262 223.102 415.421 219.365C413.805 217.936 412.471 216.243 411.482 214.368C410.187 211.615 410.225 208.488 410.3 205.459C410.581 195.429 411.103 185.404 411.866 175.385" stroke="#3F3D56" stroke-width="4" stroke-miterlimit="10"/>
<path d="M399.936 174.877C400.025 173.04 400.599 171.254 401.605 169.683C402.612 168.112 404.018 166.807 405.695 165.888L408.284 170.743L408.209 164.864C409.442 164.524 410.725 164.376 412.008 164.427C414.288 164.528 416.487 165.269 418.324 166.557C420.162 167.844 421.556 169.62 422.331 171.66C423.106 173.7 423.227 175.912 422.678 178.017C422.129 180.122 420.935 182.026 419.248 183.487C417.56 184.947 415.454 185.9 413.197 186.225C410.939 186.549 408.631 186.23 406.564 185.309C404.497 184.387 402.764 182.904 401.584 181.047C400.405 179.191 399.831 177.043 399.936 174.877Z" fill="#FF2D4A"/>
<path d="M420.524 249.102C421.734 251.34 423.718 253.114 426.143 254.128C428.567 255.142 431.285 255.333 433.841 254.669C436.396 254.005 438.633 252.527 440.177 250.482C441.721 248.438 442.478 245.951 442.32 243.439C442.163 240.928 441.101 238.544 439.312 236.688C437.524 234.832 435.118 233.616 432.498 233.245C429.877 232.874 427.203 233.37 424.922 234.649C422.641 235.929 420.893 237.915 419.97 240.274L427.183 245.85L419.248 244.068C419.242 245.819 419.679 247.546 420.524 249.102Z" fill="#FF2D4A"/>
<path d="M426.226 227.811C429.06 227.94 431.846 227.074 434.05 225.376C436.255 223.679 437.724 221.27 438.178 218.61C438.632 215.949 438.038 213.223 436.509 210.952C434.981 208.681 432.626 207.024 429.893 206.297L429.949 210.813L427.332 205.896C424.274 205.753 421.281 206.77 419.012 208.723C416.743 210.676 415.383 213.405 415.233 216.31C415.167 217.575 415.335 218.842 415.73 220.051C416.422 222.215 417.803 224.123 419.682 225.512C421.561 226.901 423.847 227.704 426.226 227.811Z" fill="#FF2D4A"/>
<path d="M398.2 210.074C399.99 210.161 401.777 209.85 403.419 209.167C405.06 208.485 406.512 207.448 407.659 206.14C408.806 204.832 409.617 203.289 410.027 201.632C410.437 199.975 410.436 198.25 410.023 196.593C409.609 194.937 408.796 193.395 407.646 192.089C406.497 190.783 405.043 189.749 403.4 189.069C401.757 188.389 399.97 188.081 398.18 188.171C396.39 188.26 394.647 188.745 393.088 189.585L395.133 194.93L390.931 191.108C389.81 192.072 388.902 193.238 388.258 194.538C387.614 195.837 387.247 197.245 387.179 198.68C387.123 199.695 387.221 200.712 387.47 201.7C388.059 204.013 389.424 206.082 391.36 207.592C393.296 209.103 395.697 209.974 398.2 210.074Z" fill="#FF2D4A"/>
<path opacity="0.1" d="M401.492 177.799C404.155 178.075 406.744 178.859 409.417 179.019C412.091 179.18 415.045 178.565 416.724 176.596C417.506 175.449 418.217 174.259 418.853 173.033C419.586 171.951 420.588 171.058 421.77 170.432C422.519 171.822 422.946 173.348 423.023 174.907C423.101 176.467 422.827 178.025 422.219 179.475C421.612 180.926 420.685 182.237 419.501 183.321C418.318 184.404 416.904 185.235 415.355 185.758C413.806 186.28 412.157 186.483 410.519 186.351C408.88 186.22 407.291 185.758 405.856 184.996C404.421 184.234 403.174 183.19 402.198 181.933C401.222 180.677 400.54 179.237 400.197 177.71C400.619 177.719 401.051 177.754 401.492 177.799Z" fill="black"/>
<path opacity="0.1" d="M398.2 210.074C400.19 210.161 402.17 209.758 403.947 208.904C405.725 208.05 407.24 206.774 408.345 205.2C409.45 203.626 410.108 201.807 410.255 199.92C410.402 198.033 410.033 196.143 409.184 194.431C408.265 195.018 407.476 195.768 406.857 196.64C406.168 197.889 405.403 199.1 404.569 200.266C402.777 202.271 399.701 202.939 396.915 202.805C394.129 202.671 391.437 201.914 388.661 201.691C388.277 201.691 387.883 201.638 387.498 201.629C388.071 203.951 389.426 206.032 391.358 207.556C393.289 209.081 395.692 209.965 398.2 210.074Z" fill="black"/>
<path opacity="0.1" d="M426.227 227.811C428.198 227.901 430.16 227.509 431.927 226.674C433.693 225.838 435.204 224.586 436.315 223.037C437.427 221.488 438.101 219.694 438.274 217.827C438.447 215.96 438.113 214.082 437.304 212.373C436.353 212.966 435.526 213.721 434.865 214.6C434.109 215.878 433.273 217.113 432.361 218.297C430.41 220.354 427.136 221.085 424.182 220.969C421.227 220.853 418.554 220.248 415.74 220.078C416.437 222.236 417.818 224.137 419.695 225.521C421.572 226.905 423.853 227.704 426.227 227.811Z" fill="black"/>
<path opacity="0.1" d="M420.523 249.102C421.879 251.583 424.181 253.479 426.959 254.403C429.737 255.326 432.782 255.207 435.471 254.069C438.16 252.932 440.289 250.862 441.425 248.283C442.561 245.704 442.616 242.81 441.58 240.193C440.625 240.781 439.771 241.505 439.048 242.34C437.951 243.605 437.172 245.013 435.953 246.233C433.589 248.434 429.781 249.342 426.386 249.422C424.427 249.423 422.469 249.316 420.523 249.102Z" fill="black"/>
<path d="M731.352 272.228C783.133 272.228 825.11 232.359 825.11 183.179C825.11 134 783.133 94.1313 731.352 94.1313C679.571 94.1313 637.594 134 637.594 183.179C637.594 232.359 679.571 272.228 731.352 272.228Z" fill="#3F3D56"/>
<path d="M771.6 206.146C768.336 203.046 760.485 198.369 756.593 196.623C752.1 194.574 750.449 194.609 747.27 196.792C744.624 198.574 742.908 200.293 739.869 199.66C736.83 199.028 730.808 194.716 724.984 189.202C719.159 183.688 714.638 178.004 713.991 175.073C713.344 172.142 715.126 170.548 717.02 168.036C719.309 165.016 719.375 163.448 717.199 159.181C715.323 155.484 710.455 148.045 707.162 144.927C703.87 141.809 703.157 142.495 701.356 143.146C699.503 143.883 697.723 144.778 696.038 145.818C692.774 147.894 690.945 149.622 689.66 152.223C688.375 154.824 686.921 159.653 694.397 172.294C699.911 181.964 706.896 190.81 715.126 198.547C723.299 206.381 732.645 213.027 742.861 218.27C756.161 225.397 761.254 223.98 763.993 222.769C766.732 221.557 768.552 219.838 770.728 216.711C771.825 215.112 772.767 213.421 773.542 211.66C774.161 209.95 774.892 209.255 771.6 206.146Z" fill="#FF2D4A"/>
<path opacity="0.1" d="M731.352 94.1401C712.797 94.1313 694.656 99.3497 679.225 109.135C663.793 118.92 651.764 132.833 644.659 149.112C637.554 165.392 635.692 183.308 639.31 200.592C642.927 217.877 651.862 233.754 664.982 246.216C678.102 258.677 694.819 267.162 713.018 270.598C731.217 274.034 750.08 272.266 767.221 265.518C784.362 258.77 799.01 247.345 809.313 232.688C819.616 218.032 825.11 200.802 825.101 183.179C825.089 159.568 815.208 136.928 797.629 120.232C780.05 103.537 756.212 94.152 731.352 94.1401ZM731.352 260.388C715.274 260.388 699.557 255.86 686.189 247.376C672.82 238.892 662.401 226.834 656.248 212.726C650.095 198.618 648.485 183.094 651.622 168.117C654.758 153.14 662.501 139.382 673.87 128.584C685.239 117.787 699.724 110.433 715.493 107.454C731.262 104.475 747.607 106.004 762.462 111.848C777.316 117.691 790.012 127.587 798.945 140.284C807.877 152.981 812.645 167.909 812.645 183.179C812.645 193.319 810.542 203.359 806.457 212.726C802.372 222.093 796.384 230.605 788.835 237.774C781.286 244.944 772.325 250.631 762.462 254.511C752.599 258.391 742.028 260.388 731.352 260.388Z" fill="black"/>
<path d="M515.951 407.484C567.733 407.484 609.71 367.616 609.71 318.436C609.71 269.256 567.733 229.388 515.951 229.388C464.17 229.388 422.193 269.256 422.193 318.436C422.193 367.616 464.17 407.484 515.951 407.484Z" fill="#3F3D56"/>
<path d="M569.273 291.532L541.2 318.658C541.151 318.703 541.112 318.757 541.085 318.817C541.058 318.877 541.044 318.941 541.044 319.006C541.044 319.071 541.058 319.135 541.085 319.195C541.112 319.254 541.151 319.308 541.2 319.353L560.897 339.246C561.369 339.696 561.689 340.27 561.819 340.893C561.948 341.516 561.881 342.162 561.625 342.749C561.37 343.336 560.938 343.839 560.383 344.193C559.828 344.548 559.175 344.739 558.506 344.742C557.605 344.74 556.743 344.401 556.104 343.798L536.511 323.977C536.411 323.883 536.276 323.831 536.135 323.831C535.995 323.831 535.86 323.883 535.76 323.977L530.986 328.556C529.031 330.454 526.697 331.962 524.12 332.992C521.542 334.022 518.775 334.552 515.979 334.551C513.13 334.538 510.312 333.987 507.69 332.928C505.069 331.87 502.695 330.326 500.709 328.386L496.122 323.932C496.022 323.838 495.887 323.786 495.747 323.786C495.607 323.786 495.472 323.838 495.372 323.932L475.825 343.709C475.51 344.008 475.137 344.245 474.726 344.407C474.314 344.569 473.874 344.653 473.428 344.653C472.983 344.653 472.542 344.569 472.131 344.407C471.72 344.245 471.346 344.008 471.032 343.709C470.716 343.411 470.465 343.056 470.293 342.665C470.122 342.275 470.034 341.856 470.034 341.433C470.034 341.009 470.122 340.59 470.293 340.2C470.465 339.809 470.716 339.455 471.032 339.157L490.654 319.309C490.741 319.212 490.789 319.089 490.789 318.961C490.789 318.834 490.741 318.711 490.654 318.614L462.581 291.488C462.509 291.419 462.417 291.372 462.316 291.353C462.216 291.334 462.112 291.343 462.017 291.381C461.923 291.418 461.842 291.481 461.785 291.562C461.729 291.643 461.699 291.738 461.699 291.835V346.114C461.707 348.212 462.588 350.222 464.15 351.706C465.712 353.19 467.828 354.026 470.038 354.033H561.835C564.045 354.026 566.161 353.19 567.723 351.706C569.286 350.222 570.166 348.212 570.174 346.114V291.88C570.178 291.779 570.15 291.679 570.093 291.594C570.035 291.509 569.951 291.442 569.853 291.404C569.754 291.366 569.645 291.358 569.542 291.381C569.438 291.404 569.344 291.457 569.273 291.532Z" fill="#FF2D4A"/>
<path d="M515.951 328.11C517.854 328.128 519.742 327.782 521.501 327.093C523.261 326.405 524.857 325.387 526.194 324.101L567.079 284.575C565.628 283.433 563.805 282.803 561.921 282.793H470.057C468.172 282.799 466.347 283.429 464.898 284.575L505.793 324.101C507.119 325.38 508.701 326.393 510.445 327.082C512.19 327.77 514.062 328.12 515.951 328.11Z" fill="#FF2D4A"/>
<path opacity="0.1" d="M514.768 229.396C496.213 229.388 478.072 234.606 462.641 244.391C447.209 254.177 435.18 268.089 428.075 284.369C420.97 300.649 419.108 318.564 422.726 335.849C426.343 353.133 435.278 369.011 448.398 381.472C461.518 393.933 478.235 402.419 496.434 405.854C514.633 409.29 533.496 407.522 550.637 400.774C567.778 394.026 582.426 382.601 592.729 367.945C603.032 353.288 608.526 336.059 608.517 318.436C608.505 294.825 598.624 272.184 581.045 255.489C563.466 238.793 539.628 229.408 514.768 229.396ZM514.768 395.645C498.69 395.645 482.973 391.116 469.605 382.633C456.236 374.149 445.817 362.09 439.664 347.982C433.511 333.874 431.901 318.35 435.038 303.373C438.174 288.396 445.917 274.639 457.286 263.841C468.655 253.043 483.14 245.689 498.909 242.71C514.678 239.731 531.023 241.26 545.878 247.104C560.732 252.948 573.428 262.844 582.361 275.541C591.293 288.238 596.061 303.165 596.061 318.436C596.061 338.913 587.496 358.551 572.251 373.031C557.006 387.51 536.329 395.645 514.768 395.645Z" fill="black"/>
<path d="M293.44 340.983C345.221 340.983 387.198 301.115 387.198 251.935C387.198 202.755 345.221 162.887 293.44 162.887C241.659 162.887 199.682 202.755 199.682 251.935C199.682 301.115 241.659 340.983 293.44 340.983Z" fill="#3F3D56"/>
<path d="M293.44 209.326L256.062 291.23L259.552 294.544L293.449 280.344L327.347 294.544L330.836 291.23L293.44 209.326Z" fill="#FF2D4A"/>
<path opacity="0.1" d="M293.44 162.86C274.887 162.851 256.748 168.068 241.317 177.852C225.887 187.635 213.857 201.545 206.751 217.822C199.645 234.099 197.78 252.012 201.394 269.296C205.008 286.579 213.938 302.457 227.053 314.92C240.169 327.383 256.882 335.871 275.077 339.312C293.273 342.753 312.135 340.992 329.277 334.25C346.418 327.509 361.07 316.091 371.378 301.441C381.687 286.79 387.189 269.565 387.189 251.944C387.189 228.325 377.313 205.673 359.733 188.968C342.153 172.262 318.308 162.872 293.44 162.86ZM293.44 329.108C277.36 329.108 261.641 324.579 248.272 316.093C234.902 307.607 224.483 295.546 218.331 281.435C212.18 267.325 210.573 251.798 213.713 236.82C216.854 221.842 224.601 208.084 235.974 197.288C247.348 186.492 261.837 179.142 277.61 176.168C293.382 173.194 309.729 174.73 324.582 180.58C339.436 186.431 352.128 196.334 361.055 209.037C369.982 221.739 374.742 236.671 374.733 251.944C374.73 272.419 366.165 292.055 350.919 306.533C335.674 321.01 314.999 329.144 293.44 329.144V329.108Z" fill="black"/>
<g opacity="0.1">
<path opacity="0.1" d="M715.238 405.399C715.238 405.399 705.915 405.158 703.101 404.677C703.101 405.132 703.101 405.399 703.101 405.399C702.369 406.094 716.007 406.45 716.007 406.45C716.193 406.466 716.369 406.534 716.513 406.646C716.016 405.399 715.238 405.399 715.238 405.399Z" fill="black"/>
<path opacity="0.1" d="M731.464 391.039C731.088 390.691 730.723 385.792 730.723 385.792C730.531 385.904 730.317 385.977 730.094 386.005C730.225 387.484 730.479 389.756 730.723 389.987C730.966 390.219 732.598 399.092 732.195 403.296C731.792 407.501 732.195 407.492 732.195 407.492C732.195 407.492 720.236 409.158 717.338 408.045C717.338 408.196 717.422 408.365 717.45 408.543C717.816 410.646 732.936 408.543 732.936 408.543C732.936 408.543 732.561 408.544 732.936 404.348C733.311 400.152 731.829 391.395 731.464 391.039Z" fill="black"/>
</g>
<g opacity="0.1">
<path opacity="0.1" d="M713.035 385.792H712.828C713.624 385.939 714.443 385.939 715.239 385.792H715.473C714.665 385.679 713.843 385.679 713.035 385.792Z" fill="black"/>
<path opacity="0.1" d="M732.384 366.71C731.062 369.534 729.111 384.83 728.764 387.867C730.058 388.188 730.912 388.42 730.912 388.42C730.912 388.42 732.938 370.425 734.42 367.236L732.384 366.71Z" fill="black"/>
</g>
<path d="M784.498 340.137C786.946 335.834 784.17 330.551 780.971 326.712C777.773 322.872 773.89 318.881 773.974 313.982C774.087 306.953 781.947 302.802 788.231 299.069C792.89 296.296 797.184 293.006 801.025 289.27C802.638 287.838 803.972 286.146 804.964 284.272C806.259 281.519 806.221 278.393 806.146 275.364C805.871 265.327 805.349 255.302 804.58 245.289" stroke="#3F3D56" stroke-width="4" stroke-miterlimit="10"/>
<path d="M816.509 244.754C816.42 242.919 815.846 241.134 814.839 239.565C813.833 237.996 812.427 236.692 810.75 235.775L808.162 240.63L808.237 234.75C807.006 234.401 805.721 234.254 804.438 234.314C802.157 234.415 799.958 235.156 798.121 236.444C796.283 237.732 794.889 239.508 794.114 241.549C793.34 243.589 793.219 245.802 793.769 247.907C794.319 250.013 795.513 251.916 797.202 253.376C798.89 254.837 800.997 255.789 803.255 256.112C805.513 256.435 807.822 256.115 809.889 255.192C811.955 254.269 813.687 252.785 814.866 250.927C816.044 249.069 816.616 246.921 816.509 244.754Z" fill="#FF2D4A"/>
<path d="M795.922 318.988C794.711 321.226 792.727 322.999 790.302 324.012C787.878 325.025 785.16 325.215 782.606 324.551C780.051 323.887 777.814 322.409 776.271 320.365C774.727 318.32 773.971 315.834 774.128 313.323C774.285 310.812 775.347 308.428 777.134 306.572C778.922 304.716 781.328 303.5 783.947 303.128C786.567 302.756 789.241 303.251 791.522 304.53C793.803 305.809 795.552 307.793 796.476 310.151L789.263 315.728L797.198 313.946C797.206 315.7 796.768 317.429 795.922 318.988Z" fill="#FF2D4A"/>
<path d="M790.218 297.688C787.383 297.817 784.598 296.951 782.393 295.253C780.189 293.556 778.719 291.147 778.266 288.487C777.812 285.826 778.406 283.1 779.934 280.829C781.463 278.558 783.818 276.901 786.551 276.174L786.494 280.69L789.111 275.782C792.171 275.649 795.16 276.675 797.424 278.634C799.687 280.593 801.039 283.326 801.183 286.232C801.255 287.67 801.027 289.108 800.513 290.463C800 291.818 799.21 293.064 798.189 294.128C797.168 295.193 795.936 296.057 794.563 296.669C793.191 297.281 791.705 297.63 790.19 297.697L790.218 297.688Z" fill="#FF2D4A"/>
<path d="M818.245 279.978C816.455 280.065 814.668 279.755 813.027 279.072C811.385 278.389 809.933 277.353 808.786 276.045C807.639 274.737 806.828 273.193 806.418 271.536C806.008 269.879 806.009 268.154 806.422 266.498C806.836 264.841 807.649 263.299 808.799 261.993C809.948 260.687 811.402 259.653 813.045 258.973C814.688 258.293 816.475 257.986 818.265 258.075C820.055 258.165 821.798 258.649 823.357 259.489L821.312 264.834L825.514 261.003C826.634 261.969 827.541 263.135 828.185 264.434C828.829 265.733 829.196 267.141 829.266 268.576C829.322 269.59 829.224 270.607 828.975 271.596C828.387 273.91 827.022 275.979 825.086 277.491C823.15 279.004 820.749 279.877 818.245 279.978Z" fill="#FF2D4A"/>
<path opacity="0.1" d="M814.963 247.676C812.299 247.961 809.701 248.745 807.027 248.906C804.354 249.066 801.4 248.451 799.721 246.474C798.936 245.328 798.225 244.138 797.591 242.91C796.86 241.831 795.862 240.938 794.684 240.309C793.935 241.699 793.508 243.225 793.431 244.785C793.353 246.345 793.627 247.902 794.235 249.353C794.842 250.804 795.769 252.115 796.953 253.198C798.136 254.282 799.55 255.112 801.099 255.635C802.649 256.158 804.297 256.36 805.936 256.229C807.574 256.097 809.163 255.635 810.598 254.873C812.033 254.112 813.28 253.067 814.256 251.811C815.232 250.554 815.914 249.114 816.257 247.587C815.825 247.605 815.394 247.632 814.963 247.676Z" fill="black"/>
<path opacity="0.1" d="M818.245 279.978C816.255 280.065 814.275 279.662 812.497 278.808C810.72 277.954 809.205 276.678 808.1 275.104C806.995 273.53 806.337 271.711 806.19 269.824C806.043 267.937 806.412 266.046 807.261 264.335C808.179 264.919 808.969 265.666 809.587 266.535C810.273 267.786 811.037 268.997 811.876 270.161C813.668 272.174 816.744 272.834 819.53 272.709C822.316 272.584 825.007 271.818 827.784 271.595C828.168 271.595 828.562 271.533 828.947 271.524C828.374 273.847 827.019 275.929 825.088 277.455C823.157 278.981 820.754 279.866 818.245 279.978Z" fill="black"/>
<path opacity="0.1" d="M790.218 297.688C788.244 297.78 786.279 297.389 784.51 296.552C782.742 295.715 781.229 294.461 780.117 292.909C779.005 291.358 778.331 289.561 778.16 287.692C777.989 285.822 778.327 283.942 779.141 282.232C780.087 282.83 780.913 283.584 781.579 284.459C782.517 285.662 783.033 287.051 784.084 288.156C786.035 290.223 789.308 290.944 792.263 290.882C795.217 290.82 797.89 290.151 800.704 289.947C800.008 292.105 798.627 294.007 796.75 295.393C794.874 296.778 792.592 297.58 790.218 297.688Z" fill="black"/>
<path opacity="0.1" d="M795.921 318.988C794.544 321.435 792.242 323.295 789.479 324.196C786.716 325.096 783.696 324.969 781.028 323.84C778.359 322.711 776.24 320.664 775.096 318.111C773.953 315.558 773.869 312.688 774.863 310.08C775.817 310.67 776.67 311.394 777.396 312.226C778.503 313.5 779.225 314.899 780.491 316.128C782.855 318.329 786.663 319.228 790.058 319.318C792.018 319.316 793.975 319.206 795.921 318.988Z" fill="black"/>
<path d="M389.58 361.41L391.625 361.802L398.594 371.592L395.527 371.984L389.58 361.41Z" fill="#2F2E41"/>
<path d="M340 401.123C340.555 402.851 341.238 404.539 342.045 406.174C344.354 405.711 346.626 405.095 348.845 404.33C348.407 403.712 347.935 403.117 347.429 402.548C346.878 401.98 346.227 401.506 345.506 401.15C344.737 400.985 343.939 400.985 343.17 401.15C342.12 401.123 341.06 401.141 340 401.123Z" fill="#FBBEBE"/>
<path d="M345.516 403.734C344.961 403.498 344.466 403.151 344.065 402.718C343.663 402.284 343.365 401.774 343.189 401.221C342.832 400.111 342.228 399.088 341.417 398.219C341.246 398.241 341.084 398.305 340.946 398.403C340.808 398.501 340.699 398.631 340.629 398.78C340.46 399.066 340.357 399.386 340.169 399.671C339.794 400.179 339.137 400.428 338.669 400.856C338.2 401.284 337.918 401.952 337.412 402.388C336.715 402.876 335.898 403.183 335.039 403.279C333.733 403.559 332.472 403.999 331.287 404.589C330.853 404.835 330.39 405.033 329.908 405.177C329.373 405.253 328.829 405.253 328.295 405.177L324.599 404.927C324.289 404.879 323.972 404.879 323.661 404.927C323.284 405.057 322.963 405.303 322.751 405.626C322.538 405.949 322.446 406.33 322.489 406.709C322.532 407.085 322.66 407.447 322.862 407.773C323.064 408.098 323.336 408.379 323.661 408.597C324.303 409.035 325.012 409.378 325.762 409.613C328.98 410.764 332.293 411.658 335.667 412.286V412.98C338.017 414.076 340.6 414.646 343.218 414.646C343.41 414.657 343.602 414.627 343.78 414.557C344.02 414.387 344.187 414.14 344.249 413.862C345.138 411.402 345.659 408.835 345.797 406.237C345.857 405.577 345.803 404.912 345.638 404.268C345.431 403.636 346.125 403.903 345.487 403.653" fill="#2F2E41"/>
<path d="M416.386 390.505C405.431 391.128 394.607 388.082 383.633 387.761C382.271 387.676 380.903 387.756 379.562 388.001C378.166 388.361 376.814 388.86 375.529 389.489C369.648 392.09 363.561 394.246 357.483 396.393L350.495 398.861C349.136 399.444 347.662 399.747 346.171 399.751C345.505 399.751 344.689 399.618 344.295 400.143C343.16 401.747 343.695 404.09 344.445 405.889C344.689 406.468 345.102 407.101 345.758 407.163C346.219 407.134 346.67 407.025 347.09 406.843C348.356 406.522 349.622 407.333 350.936 407.466C352.549 407.627 354.05 406.753 355.579 406.219C358.111 405.328 360.869 405.328 363.532 404.936C367.988 404.232 372.124 402.264 375.988 400.028C377.394 399.077 378.966 398.371 380.631 397.943C382.604 397.722 384.605 397.939 386.475 398.576C391.02 399.794 395.494 401.239 399.878 402.905C402.158 403.847 404.494 404.659 406.875 405.337C412.073 406.629 417.569 406.317 422.567 404.446C424.321 403.787 426.225 402.665 426.319 400.829C426.385 399.805 425.541 398.905 424.987 398.023C424.631 397.462 424.265 396.901 423.881 396.357C422.005 393.774 419.716 390.318 416.386 390.505Z" fill="#2F2E41"/>
<path opacity="0.1" d="M416.386 390.505C405.431 391.128 394.607 388.082 383.633 387.761C382.271 387.676 380.903 387.756 379.562 388.001C378.166 388.361 376.814 388.86 375.529 389.489C369.648 392.09 363.561 394.246 357.483 396.393L350.495 398.861C349.136 399.444 347.662 399.747 346.171 399.751C345.505 399.751 344.689 399.618 344.295 400.143C343.16 401.747 343.695 404.09 344.445 405.889C344.689 406.468 345.102 407.101 345.758 407.163C346.219 407.134 346.67 407.025 347.09 406.843C348.356 406.522 349.622 407.333 350.936 407.466C352.549 407.627 354.05 406.753 355.579 406.219C358.111 405.328 360.869 405.328 363.532 404.936C367.988 404.232 372.124 402.264 375.988 400.028C377.394 399.077 378.966 398.371 380.631 397.943C382.604 397.722 384.605 397.939 386.475 398.576C391.02 399.794 395.494 401.239 399.878 402.905C402.158 403.847 404.494 404.659 406.875 405.337C412.073 406.629 417.569 406.317 422.567 404.446C424.321 403.787 426.225 402.665 426.319 400.829C426.385 399.805 425.541 398.905 424.987 398.023C424.631 397.462 424.265 396.901 423.881 396.357C422.005 393.774 419.716 390.318 416.386 390.505Z" fill="black"/>
<path d="M361.039 401.604C362.752 402.156 364.481 402.667 366.226 403.136C367.164 401.613 369.04 400.553 369.443 398.807C369.467 398.731 369.467 398.651 369.443 398.575C369.397 398.501 369.328 398.442 369.246 398.406C367.992 397.752 366.603 397.366 365.175 397.274C364.05 397.212 363.534 398.326 363.028 399.11C362.831 399.457 361.499 401.773 361.039 401.604Z" fill="#FBBEBE"/>
<path d="M363.439 400.517C362.926 400.435 362.437 400.252 362.003 399.981C361.569 399.709 361.198 399.355 360.916 398.94C360.681 398.54 360.419 397.996 359.931 398.05C359.443 398.103 359.284 398.584 359.181 399.003C358.856 400.581 358.382 402.129 357.764 403.626C357.145 405.132 356.096 406.443 354.735 407.412C354.097 407.831 353.393 408.143 352.765 408.588C352.245 409.026 351.69 409.425 351.105 409.782C350.691 409.958 350.265 410.107 349.829 410.227C349.188 410.456 348.578 410.755 348.01 411.118C347.504 411.394 347.076 411.782 346.762 412.25C346.607 412.483 346.517 412.751 346.501 413.026C346.484 413.302 346.542 413.577 346.668 413.826C346.8 414.031 346.975 414.207 347.184 414.342C347.393 414.478 347.629 414.569 347.878 414.61C348.379 414.681 348.888 414.681 349.388 414.61C351.386 414.477 353.384 414.307 355.382 414.138C356.224 414.086 357.061 413.976 357.886 413.808L359.19 413.47C359.935 413.283 360.699 413.175 361.469 413.149C361.693 413.13 361.919 413.151 362.135 413.212C362.595 413.354 362.923 413.791 363.401 413.88C363.719 413.909 364.04 413.869 364.339 413.764C365.797 413.467 367.285 413.321 368.776 413.327C369.433 413.327 370.202 413.167 370.502 412.615C370.877 411.92 370.258 411.145 370.005 410.397C369.884 409.921 369.814 409.434 369.798 408.944C369.686 407.733 369.313 406.556 368.701 405.488C368.194 404.597 367.5 403.617 367.857 402.673C368.034 402.373 368.149 402.043 368.194 401.702C368.054 400.17 364.358 400.713 363.439 400.517Z" fill="#2F2E41"/>
<path d="M399.964 373.81C398.02 373.001 396.462 371.534 395.593 369.694C395.415 369.302 395.265 368.884 395.087 368.492C394.515 367.164 393.621 365.983 392.479 365.044C392.359 364.923 392.213 364.826 392.052 364.76C391.891 364.694 391.717 364.661 391.541 364.661C391.367 364.711 391.21 364.804 391.086 364.931C390.963 365.058 390.877 365.214 390.838 365.383C390.733 365.745 390.708 366.124 390.763 366.496C390.858 367.372 391.015 368.241 391.232 369.098L391.766 371.396C391.837 371.747 391.947 372.091 392.095 372.42C392.323 372.805 392.626 373.147 392.986 373.427C393.474 373.855 393.971 374.264 394.468 374.674C394.755 374.912 395.07 375.118 395.406 375.289C395.93 375.526 396.49 375.683 397.066 375.752C399.304 376.029 401.44 376.811 403.294 378.033C403.294 378.033 403.294 376.491 403.294 376.322C403.27 375.874 403.107 375.443 402.825 375.084C401.966 374.49 400.995 374.057 399.964 373.81Z" fill="#FBBEBE"/>
<path opacity="0.1" d="M399.964 373.81C398.02 373.001 396.462 371.534 395.593 369.694C395.415 369.302 395.265 368.884 395.087 368.492C394.515 367.164 393.621 365.983 392.479 365.044C392.359 364.923 392.213 364.826 392.052 364.76C391.891 364.694 391.717 364.661 391.541 364.661C391.367 364.711 391.21 364.804 391.086 364.931C390.963 365.058 390.877 365.214 390.838 365.383C390.733 365.745 390.708 366.124 390.763 366.496C390.858 367.372 391.015 368.241 391.232 369.098L391.766 371.396C391.837 371.747 391.947 372.091 392.095 372.42C392.323 372.805 392.626 373.147 392.986 373.427C393.474 373.855 393.971 374.264 394.468 374.674C394.755 374.912 395.07 375.118 395.406 375.289C395.93 375.526 396.49 375.683 397.066 375.752C399.304 376.029 401.44 376.811 403.294 378.033C403.294 378.033 403.294 376.491 403.294 376.322C403.27 375.874 403.107 375.443 402.825 375.084C401.966 374.49 400.995 374.057 399.964 373.81Z" fill="black"/>
<path d="M422.267 356.225C423.739 356.225 424.931 355.084 424.931 353.677C424.931 352.27 423.739 351.129 422.267 351.129C420.796 351.129 419.604 352.27 419.604 353.677C419.604 355.084 420.796 356.225 422.267 356.225Z" fill="#2F2E41"/>
<path d="M420.616 352.145C419.903 351.982 419.152 352.084 418.515 352.43C418.208 352.69 417.962 353.009 417.793 353.365C417.197 354.34 416.73 355.381 416.405 356.465C416.17 357.356 416.133 358.363 415.833 359.28C415.289 360.973 413.891 362.407 413.732 364.171C413.657 364.964 413.797 365.89 413.188 366.425C413.039 366.548 412.879 366.658 412.709 366.755C412.287 367.022 411.929 367.371 411.659 367.779C411.475 368.142 411.224 368.471 410.918 368.75C410.374 369.133 409.473 369.097 409.211 369.641C408.948 370.184 409.633 370.924 409.473 371.565C409.314 372.207 408.723 372.331 408.301 372.688C407.804 373.186 407.454 373.801 407.288 374.469C406.397 374.632 405.478 374.609 404.597 374.402C403.716 374.194 402.893 373.807 402.186 373.267C402.804 375.052 403.075 376.93 402.983 378.808C403.029 379.108 403.012 379.414 402.931 379.708C402.851 380.002 402.709 380.277 402.514 380.518C404.63 380.668 406.725 381.014 408.77 381.551C409.656 381.832 410.614 381.832 411.499 381.551C411.974 381.31 412.399 380.99 412.756 380.607C413.882 379.52 415.064 378.335 415.336 376.83C415.403 375.979 415.419 375.126 415.383 374.273C415.49 373.216 415.719 372.173 416.067 371.164C416.661 369.069 417.06 366.929 417.258 364.768C417.38 363.432 418.6 362.363 419.238 361.205C420.438 358.951 421.676 356.608 421.761 354.078C421.798 353.258 421.498 352.234 420.616 352.145Z" fill="#2F2E41"/>
<path opacity="0.1" d="M420.616 352.145C419.903 351.982 419.152 352.084 418.515 352.43C418.208 352.69 417.962 353.009 417.793 353.365C417.197 354.34 416.73 355.381 416.405 356.465C416.17 357.356 416.133 358.363 415.833 359.28C415.289 360.973 413.891 362.407 413.732 364.171C413.657 364.964 413.797 365.89 413.188 366.425C413.039 366.548 412.879 366.658 412.709 366.755C412.287 367.022 411.929 367.371 411.659 367.779C411.475 368.142 411.224 368.471 410.918 368.75C410.374 369.133 409.473 369.097 409.211 369.641C408.948 370.184 409.633 370.924 409.473 371.565C409.314 372.207 408.723 372.331 408.301 372.688C407.804 373.186 407.454 373.801 407.288 374.469C406.397 374.632 405.478 374.609 404.597 374.402C403.716 374.194 402.893 373.807 402.186 373.267C402.804 375.052 403.075 376.93 402.983 378.808C403.029 379.108 403.012 379.414 402.931 379.708C402.851 380.002 402.709 380.277 402.514 380.518C404.63 380.668 406.725 381.014 408.77 381.551C409.656 381.832 410.614 381.832 411.499 381.551C411.974 381.31 412.399 380.99 412.756 380.607C413.882 379.52 415.064 378.335 415.336 376.83C415.403 375.979 415.419 375.126 415.383 374.273C415.49 373.216 415.719 372.173 416.067 371.164C416.661 369.069 417.06 366.929 417.258 364.768C417.38 363.432 418.6 362.363 419.238 361.205C420.438 358.951 421.676 356.608 421.761 354.078C421.798 353.258 421.498 352.234 420.616 352.145Z" fill="black"/>
<path d="M418.122 392.696C415.843 391.662 414.173 389.747 412.325 388.099C408.808 384.954 404.503 382.754 400.798 379.788C398.34 377.837 396.108 375.565 393.454 373.926C391.076 372.494 388.383 371.601 385.584 371.316C385.276 371.248 384.955 371.248 384.646 371.316C384.292 371.459 383.984 371.69 383.755 371.984C382.559 373.265 381.494 374.653 380.576 376.126C375.886 383.698 369.217 390.059 363.692 397.097C363.565 397.243 363.473 397.413 363.42 397.595C363.397 397.868 363.47 398.141 363.627 398.37L364.752 400.455C365.381 401.631 366.394 402.994 367.744 402.762C368.352 402.595 368.897 402.264 369.311 401.809L374.357 397.221L379.647 392.42C382.742 389.614 385.894 386.736 387.92 383.137C389.495 385.738 392.3 387.44 394.213 389.818C394.945 390.709 395.545 391.716 396.202 392.678C397.243 394.21 398.434 395.653 399.616 397.132L405.685 404.482C406.454 405.52 407.406 406.424 408.499 407.154C409.995 407.928 411.663 408.352 413.367 408.392C415.646 408.585 417.935 408.663 420.223 408.624C421.975 408.691 423.722 408.387 425.335 407.733C426.139 407.397 426.826 406.851 427.316 406.159C427.806 405.467 428.078 404.656 428.102 403.822C428.008 402.959 427.71 402.128 427.23 401.39C425.035 397.676 422.202 394.54 418.122 392.696Z" fill="#2F2E41"/>
<path d="M423.91 357.401C425.044 357.401 425.964 356.523 425.964 355.441C425.964 354.358 425.044 353.481 423.91 353.481C422.775 353.481 421.855 354.358 421.855 355.441C421.855 356.523 422.775 357.401 423.91 357.401Z" fill="#E8E8F0"/>
<path d="M423.458 353.971C423.917 354.846 423.997 355.856 423.683 356.786C423.36 357.7 422.915 358.571 422.361 359.379C421.884 360.211 421.308 360.988 420.645 361.695C423.815 361.837 426.882 360.661 429.668 359.236C431.919 358.087 434.16 356.67 435.361 354.524C435.003 354.605 434.631 354.613 434.269 354.549C433.907 354.484 433.563 354.348 433.26 354.149C432.655 353.754 432.115 353.277 431.656 352.733L430.071 351.04C429.711 350.668 429.397 350.259 429.133 349.82C428.785 349.22 428.637 348.533 428.711 347.851C428.079 348.477 427.374 349.033 426.61 349.508C425.475 350.212 424.228 350.72 423.083 351.414C422.689 351.664 421.789 352.056 422.023 352.555C422.258 353.054 423.139 353.437 423.458 353.971Z" fill="#FBBEBE"/>
<path opacity="0.1" d="M423.458 353.971C423.917 354.846 423.997 355.856 423.683 356.786C423.36 357.7 422.915 358.571 422.361 359.379C421.884 360.211 421.308 360.988 420.645 361.695C423.815 361.837 426.882 360.661 429.668 359.236C431.919 358.087 434.16 356.67 435.361 354.524C435.003 354.605 434.631 354.613 434.269 354.549C433.907 354.484 433.563 354.348 433.26 354.149C432.655 353.754 432.115 353.277 431.656 352.733L430.071 351.04C429.711 350.668 429.397 350.259 429.133 349.82C428.785 349.22 428.637 348.533 428.711 347.851C428.079 348.477 427.374 349.033 426.61 349.508C425.475 350.212 424.228 350.72 423.083 351.414C422.689 351.664 421.789 352.056 422.023 352.555C422.258 353.054 423.139 353.437 423.458 353.971Z" fill="black"/>
<path d="M423.496 354.265C423.175 354.694 423.002 355.208 423.002 355.735C423.002 356.261 423.175 356.775 423.496 357.205C423.59 357.311 423.927 357.98 424.068 357.988C424.137 357.983 424.204 357.964 424.265 357.934C424.327 357.903 424.381 357.861 424.424 357.81C425.146 357.096 425.816 356.337 426.432 355.539C427.06 354.742 427.963 354.181 428.983 353.953C430.246 353.907 431.488 354.275 432.5 354.995C432.971 355.199 433.385 355.504 433.71 355.886C433.937 356.279 434.071 356.713 434.104 357.16C434.411 359.849 434.53 362.554 434.461 365.258C434.514 367.21 434.379 369.164 434.057 371.093C433.851 372.082 433.551 373.053 433.41 374.059C433.3 374.946 433.256 375.839 433.279 376.732V380.455C433.254 381.139 433.304 381.822 433.429 382.495C433.616 383.306 434.02 384.063 434.292 384.856C434.572 385.767 434.764 386.7 434.864 387.645L435.399 391.493C435.567 392.704 435.699 394.032 434.92 395.056C434.573 395.493 434.114 395.849 433.757 396.286C432.435 397.925 432.819 400.268 432.303 402.272C431.869 403.739 430.972 405.045 429.733 406.014C429.292 406.429 428.76 406.747 428.175 406.945C427.59 407.144 426.966 407.218 426.347 407.163C424.696 406.869 423.712 405.239 423.261 403.697C422.811 402.156 422.652 400.481 421.676 399.181C420.781 398.196 419.723 397.357 418.543 396.695C417.35 396.024 416.474 394.943 416.095 393.675C415.992 393.114 416.095 392.535 415.992 391.965C415.904 391.248 415.615 390.566 415.154 389.991C414.694 389.415 414.08 388.968 413.375 388.696C412.531 388.384 411.499 388.268 411.012 387.538C412.219 386.819 413.099 385.697 413.479 384.393C413.852 383.097 414.053 381.763 414.079 380.42L414.36 375.966C414.492 373.961 414.548 371.984 415.476 370.184C415.889 369.382 416.414 368.625 416.836 367.832C417.408 366.718 417.894 365.566 418.29 364.385C418.966 362.55 419.641 360.714 420.241 358.862C420.475 357.962 420.835 357.096 421.31 356.287C421.817 355.45 422.549 354.443 423.496 354.265Z" fill="#E8E8F0"/>
<path d="M413.038 383.342H414.286L414.548 381.56C414.582 381.203 414.671 380.852 414.811 380.518C415.017 380.164 415.259 379.83 415.533 379.52C416.752 377.872 416.668 375.69 416.968 373.685C417.512 371.037 418.433 368.472 419.707 366.06L422.127 360.937C422.347 360.519 422.523 360.08 422.652 359.628C422.754 359.129 422.804 358.622 422.802 358.114C422.802 357.321 423.065 354.434 423.093 353.659C423.093 353.365 422.408 353.526 422.268 353.267C421.967 352.697 421.555 354.238 420.983 354.577C420.445 354.967 420.054 355.51 419.866 356.127C419.341 357.41 419.022 358.799 418.535 360.073C418.11 361.403 417.332 362.606 416.274 363.565C415.777 363.975 415.205 364.305 414.736 364.75C413.235 366.158 413.085 368.394 413.038 370.407C413.001 371.636 412.757 383.342 413.038 383.342Z" fill="#2F2E41"/>
<path d="M430.991 352.136C430.411 352.424 429.909 352.835 429.524 353.337C429.138 353.839 428.88 354.419 428.768 355.031C428.554 356.26 428.176 357.457 427.643 358.595C426.123 361.107 422.249 361.837 421.171 364.554C420.9 365.468 420.754 366.411 420.739 367.36C420.552 369.311 419.876 371.191 419.67 373.133C419.567 374.645 419.604 376.162 419.783 377.667L421.143 393.008C421.403 395.264 421.267 397.546 420.739 399.76C422.133 399.949 423.555 399.725 424.81 399.119C426.076 398.567 427.239 397.809 428.468 397.168C430.569 396.063 432.895 395.288 434.743 393.818C435.074 393.568 435.359 393.267 435.587 392.928C435.87 392.284 436.059 391.606 436.15 390.914C436.31 390.371 436.513 389.841 436.76 389.328C437.436 387.78 438.025 386.198 438.523 384.589C438.861 383.525 439.131 382.442 439.33 381.347C439.48 380.456 439.564 379.565 439.639 378.674C439.737 377.293 440.027 375.93 440.502 374.621C441.679 371.493 442.346 368.212 442.481 364.893C442.517 364.415 442.483 363.936 442.378 363.467C442.172 362.895 441.895 362.348 441.553 361.837C440.99 360.831 440.615 359.726 440.127 358.702C438.797 356.445 436.89 354.543 434.584 353.169C433.495 352.466 432.22 351.717 430.991 352.136Z" fill="#2F2E41"/>
<path d="M402.654 377.169C401.692 376.688 400.82 376.059 400.075 375.307C399.737 374.933 399.456 374.514 399.137 374.14C398.267 373.251 397.137 372.63 395.892 372.358C394.66 372.101 393.401 371.984 392.14 372.011C391.294 371.957 390.444 372.053 389.636 372.296C389.232 372.424 388.869 372.646 388.579 372.942C388.289 373.237 388.082 373.597 387.975 373.988C387.941 374.473 388.04 374.957 388.262 375.394C388.484 375.831 388.821 376.206 389.242 376.483C389.974 377.053 390.839 377.45 391.765 377.641C392.519 377.768 393.28 377.854 394.044 377.899C398.527 378.344 402.532 380.661 406.462 382.772C409.914 384.637 413.435 386.371 417.024 387.974C417.163 386.956 417.222 385.928 417.202 384.901C417.202 384.135 417.136 382.959 416.377 382.505C415.296 382.075 414.17 381.756 413.019 381.551C410.704 380.833 408.444 379.964 406.256 378.95C405.018 378.442 403.827 377.819 402.654 377.169Z" fill="#FBBEBE"/>
<path d="M422.269 353.098C426.682 353.098 430.26 349.68 430.26 345.464C430.26 341.247 426.682 337.829 422.269 337.829C417.855 337.829 414.277 341.247 414.277 345.464C414.277 349.68 417.855 353.098 422.269 353.098Z" fill="#FBBEBE"/>
<path d="M433.27 360.786C432.632 361.637 432.112 362.562 431.723 363.539C430.785 365.463 429.19 367.102 428.412 369.142C427.633 371.182 427.624 373.801 426.02 375.467C425.699 375.722 425.456 376.054 425.316 376.429C425.31 376.662 425.285 376.894 425.241 377.124C425.007 377.73 423.966 377.756 423.769 378.38C423.712 378.558 423.769 378.754 423.675 378.932C423.515 379.333 422.953 379.396 422.587 379.636C421.808 380.135 421.968 381.293 421.414 382.015C421.173 382.283 420.861 382.487 420.51 382.604C420.159 382.721 419.782 382.748 419.417 382.683C418.689 382.542 417.989 382.292 417.344 381.943C417.112 381.823 416.857 381.747 416.593 381.721C416.282 381.731 415.981 381.83 415.73 382.006C415.023 382.501 414.456 383.154 414.079 383.908C413.703 384.662 413.529 385.493 413.573 386.326C413.681 387.996 414.1 389.634 414.811 391.164C414.89 391.429 415.028 391.674 415.215 391.885C415.494 392.093 415.832 392.218 416.186 392.243C416.54 392.269 416.894 392.194 417.203 392.028C417.815 391.682 418.466 391.404 419.145 391.199C420.383 390.985 421.593 391.796 422.85 391.725C423.765 391.596 424.626 391.236 425.344 390.682C426.607 389.967 427.74 389.065 428.702 388.01C429.246 387.324 429.64 386.549 430.128 385.819C430.749 384.931 431.422 384.077 432.145 383.262L436.759 377.917C437.218 377.409 437.632 376.867 437.997 376.295C438.407 375.515 438.722 374.694 438.935 373.846C439.429 372.434 439.744 370.972 439.873 369.489C439.902 368.264 439.789 367.039 439.536 365.837C439.396 364.64 439.08 363.468 438.598 362.354C437.594 360.341 435.155 358.701 433.27 360.786Z" fill="#2F2E41"/>
<path d="M425.933 348.266C426.473 347.876 426.467 347.005 425.919 346.319C425.37 345.633 424.488 345.394 423.947 345.783C423.407 346.173 423.413 347.045 423.962 347.731C424.51 348.416 425.393 348.656 425.933 348.266Z" fill="#FBBEBE"/>
<path d="M420.974 331.087C420.639 330.983 420.284 330.972 419.943 331.055C419.514 331.2 419.232 331.611 418.904 331.933C418.046 332.777 416.82 333.041 415.702 333.441C414.584 333.841 413.407 334.549 413.127 335.739C413.059 336.219 413.019 336.702 413.005 337.186C412.838 338.591 411.804 339.856 411.989 341.258C412.11 342.174 412.74 342.952 412.87 343.867C413.014 344.887 412.516 345.948 412.794 346.939C413.066 347.909 413.986 348.5 414.833 349C415.197 346.61 415.633 344.233 416.143 341.87C416.201 341.443 416.361 341.038 416.61 340.691C417.362 339.809 418.837 340.311 419.814 339.708C420.184 339.479 420.46 339.101 420.849 338.908C421.977 338.35 423.197 339.587 424.447 339.598C424.999 339.604 425.604 339.377 426.07 339.682C426.275 339.838 426.439 340.047 426.544 340.287C426.989 341.153 427.234 342.126 427.754 342.947C428.273 343.768 429.204 344.437 430.125 344.207C429.984 343.467 430.543 342.802 430.767 342.084C431.152 340.849 430.523 339.509 430.674 338.221C430.817 337.012 431.577 335.593 430.743 334.734C430.458 334.485 430.12 334.309 429.756 334.221C426.803 333.25 424.076 331.623 420.974 331.087Z" fill="#2F2E41"/>
</g>
<defs>
<clipPath id="clip0">
<rect y="-29" width="1028" height="512" fill="white"/>
</clipPath>
</defs>
</svg>
